<?xml version="1.0" encoding="UTF-8" standalone="no"?>
<svg
   xmlns:dc="http://purl.org/dc/elements/1.1/"
   xmlns:cc="http://creativecommons.org/ns#"
   xmlns:rdf="http://www.w3.org/1999/02/22-rdf-syntax-ns#"
   xmlns:svg="http://www.w3.org/2000/svg"
   xmlns="http://www.w3.org/2000/svg"
   xmlns:sodipodi="http://sodipodi.sourceforge.net/DTD/sodipodi-0.dtd"
   xmlns:inkscape="http://www.inkscape.org/namespaces/inkscape"
   version="1.1"
   viewBox="0 0 918 272.48901"
   stroke-miterlimit="10"
   id="svg3484"
   inkscape:version="0.48.3.1 r9886"
   width="100%"
   height="100%"
   sodipodi:docname="Stratosphere_Stack.svg"
   style="fill:none;stroke:none">
  <metadata
     id="metadata3611">
    <rdf:RDF>
      <cc:Work
         rdf:about="">
        <dc:format>image/svg+xml</dc:format>
        <dc:type
           rdf:resource="http://purl.org/dc/dcmitype/StillImage" />
      </cc:Work>
    </rdf:RDF>
  </metadata>
  <defs
     id="defs3609" />
  <sodipodi:namedview
     pagecolor="#ffffff"
     bordercolor="#666666"
     borderopacity="1"
     objecttolerance="10"
     gridtolerance="10"
     guidetolerance="10"
     inkscape:pageopacity="0"
     inkscape:pageshadow="2"
     inkscape:window-width="1920"
     inkscape:window-height="1143"
     id="namedview3607"
     showgrid="false"
     fit-margin-top="0"
     fit-margin-left="0"
     fit-margin-right="0"
     fit-margin-bottom="0"
     inkscape:zoom="0.7647541"
     inkscape:cx="294.17537"
     inkscape:cy="84.562211"
     inkscape:window-x="1440"
     inkscape:window-y="27"
     inkscape:window-maximized="1"
     inkscape:current-layer="svg3484" />
  <clipPath
     id="p.0">
    <path
       d="M 0,0 918,0 918,610 0,610 0,0 z"
       clip-rule="nonzero"
       id="path3487"
       inkscape:connector-curvature="0" />
  </clipPath>
  <g
     clip-path="url(#p.0)"
     id="g3489"
     transform="scale(1,0.4467033)">
    <path
       d="m 0,0 918.67456,0 0,610.3307 -918.67456,0 z"
       id="path3491"
       inkscape:connector-curvature="0"
       style="fill:#000000;fill-opacity:0;fill-rule:nonzero" />
    <path
       d="m 34.490814,494.59354 0,0 c 0,-10.19064 8.261158,-18.45181 18.451813,-18.45181 l 827.096403,0 c 4.89374,0 9.58703,1.94403 13.04742,5.40442 3.46039,3.46038 5.40436,8.15368 5.40436,13.04739 l 0,73.80502 c 0,10.19067 -8.26111,18.45184 -18.45178,18.45184 l -827.096403,0 c -10.190655,0 -18.451813,-8.26117 -18.451813,-18.45184 z"
       id="path3493"
       inkscape:connector-curvature="0"
       style="fill:#cccccc;fill-rule:nonzero" />
    <path
       d="m 34.490814,494.59354 0,0 c 0,-10.19064 8.261158,-18.45181 18.451813,-18.45181 l 827.096403,0 c 4.89374,0 9.58703,1.94403 13.04742,5.40442 3.46039,3.46038 5.40436,8.15368 5.40436,13.04739 l 0,73.80502 c 0,10.19067 -8.26111,18.45184 -18.45178,18.45184 l -827.096403,0 c -10.190655,0 -18.451813,-8.26117 -18.451813,-18.45184 z"
       id="path3495"
       inkscape:connector-curvature="0"
       style="stroke:#000000;stroke-width:4.48860788;stroke-linecap:butt;stroke-linejoin:round" />
    <path
       d="m 261.02887,502.86642 0,0 c 0,-7.9061 6.40915,-14.31525 14.31525,-14.31525 l 133.44824,0 c 3.79663,0 7.43777,1.50821 10.1224,4.19284 2.68463,2.68463 4.19284,6.32578 4.19284,10.12241 l 0,57.25925 c 0,7.90612 -6.40915,14.31524 -14.31524,14.31524 l -133.44824,0 c -7.9061,0 -14.31525,-6.40912 -14.31525,-14.31524 z"
       id="path3497"
       inkscape:connector-curvature="0"
       style="fill:#ffffff;fill-rule:nonzero" />
    <path
       d="m 261.02887,502.86642 0,0 c 0,-7.9061 6.40915,-14.31525 14.31525,-14.31525 l 133.44824,0 c 3.79663,0 7.43777,1.50821 10.1224,4.19284 2.68463,2.68463 4.19284,6.32578 4.19284,10.12241 l 0,57.25925 c 0,7.90612 -6.40915,14.31524 -14.31524,14.31524 l -133.44824,0 c -7.9061,0 -14.31525,-6.40912 -14.31525,-14.31524 z"
       id="path3499"
       inkscape:connector-curvature="0"
       style="stroke:#000000;stroke-width:4.48860788;stroke-linecap:butt;stroke-linejoin:round" />
    <path
       d="m 295.30936,538.4161 0,-13.48437 2.75,0 0,11.1875 6.82813,0 0,2.29687 -9.57813,0 z m 10.70847,-5.0625 q 0,-1.29687 0.64062,-2.51562 0.64063,-1.21875 1.8125,-1.85938 1.17188,-0.64062 2.60938,-0.64062 2.25,0 3.67187,1.45312 1.42188,1.45313 1.42188,3.67188 0,2.23437 -1.4375,3.70312 -1.4375,1.46875 -3.625,1.46875 -1.35938,0 -2.59375,-0.60937 -1.21875,-0.60938 -1.85938,-1.79688 -0.64062,-1.1875 -0.64062,-2.875 z m 2.67187,0.14063 q 0,1.46875 0.6875,2.25 0.70313,0.76562 1.71875,0.76562 1.01563,0 1.70313,-0.76562 0.70312,-0.78125 0.70312,-2.26563 0,-1.45312 -0.70312,-2.23437 -0.6875,-0.78125 -1.70313,-0.78125 -1.01562,0 -1.71875,0.78125 -0.6875,0.78125 -0.6875,2.25 z m 17.91162,-2.01563 -2.5625,0.46875 q -0.14062,-0.78125 -0.59375,-1.17187 -0.45312,-0.39063 -1.1875,-0.39063 -0.98437,0 -1.5625,0.67188 -0.57812,0.67187 -0.57812,2.25 0,1.76562 0.57812,2.48437 0.59375,0.71875 1.59375,0.71875 0.75,0 1.21875,-0.42187 0.46875,-0.42188 0.67188,-1.45313 l 2.54687,0.4375 q -0.39062,1.76563 -1.53125,2.67188 -1.125,0.89062 -3.03125,0.89062 -2.15625,0 -3.45312,-1.35937 -1.28125,-1.35938 -1.28125,-3.78125 0,-2.4375 1.29687,-3.79688 1.29688,-1.35937 3.48438,-1.35937 1.79687,0 2.85937,0.78125 1.0625,0.76562 1.53125,2.35937 z m 3.73508,0.0937 -2.35938,-0.4375 q 0.39063,-1.42187 1.35938,-2.10937 0.98437,-0.6875 2.90625,-0.6875 1.73437,0 2.59375,0.42187 0.85937,0.40625 1.20312,1.04688 0.34375,0.625 0.34375,2.32812 l -0.0312,3.04688 q 0,1.29687 0.125,1.92187 0.125,0.60938 0.46875,1.3125 l -2.57812,0 q -0.0937,-0.26562 -0.25,-0.76562 -0.0625,-0.23438 -0.0937,-0.3125 -0.65625,0.65625 -1.42188,0.98437 -0.76562,0.3125 -1.625,0.3125 -1.51562,0 -2.40625,-0.8125 -0.875,-0.82812 -0.875,-2.09375 0,-0.84375 0.39063,-1.48437 0.40625,-0.65625 1.125,-1 0.71875,-0.35938 2.07812,-0.625 1.82813,-0.32813 2.53125,-0.625 l 0,-0.26563 q 0,-0.75 -0.375,-1.0625 -0.35937,-0.32812 -1.39062,-0.32812 -0.70313,0 -1.09375,0.28125 -0.39063,0.26562 -0.625,0.95312 z m 3.48437,2.10938 q -0.5,0.17187 -1.59375,0.40625 -1.07812,0.23437 -1.40625,0.45312 -0.51562,0.35938 -0.51562,0.92188 0,0.54687 0.40625,0.95312 0.40625,0.39063 1.04687,0.39063 0.70313,0 1.34375,-0.46875 0.46875,-0.35938 0.625,-0.85938 0.0937,-0.34375 0.0937,-1.28125 l 0,-0.51562 z m 4.93824,4.73437 0,-13.59375 2.60937,0 0,13.59375 -2.60937,0 z m 10.41348,0 0,-13.59375 9.3125,0 0,2.29688 -6.57813,0 0,3.21875 5.6875,0 0,2.29687 -5.6875,0 0,5.78125 -2.73437,0 z m 11.34909,-11.1875 0,-2.40625 2.60938,0 0,2.40625 -2.60938,0 z m 0,11.1875 0,-9.85937 2.60938,0 0,9.85937 -2.60938,0 z m 5.18332,0 0,-13.59375 2.60937,0 0,13.59375 -2.60937,0 z m 10.88641,-3.14062 2.60938,0.4375 q -0.5,1.4375 -1.59375,2.1875 -1.07813,0.73437 -2.70313,0.73437 -2.5625,0 -3.79687,-1.67187 -0.96875,-1.34375 -0.96875,-3.40625 0,-2.4375 1.26562,-3.82813 1.28125,-1.39062 3.25,-1.39062 2.1875,0 3.45313,1.45312 1.28125,1.45313 1.23437,4.45313 l -6.53125,0 q 0.0156,1.15625 0.625,1.8125 0.60938,0.64062 1.5,0.64062 0.60938,0 1.03125,-0.32812 0.42188,-0.34375 0.625,-1.09375 z m 0.15625,-2.625 q -0.0312,-1.14063 -0.59375,-1.71875 -0.54687,-0.59375 -1.34375,-0.59375 -0.85937,0 -1.40625,0.625 -0.5625,0.60937 -0.54687,1.6875 l 3.89062,0 z m 3.61011,2.95312 2.60938,-0.39062 q 0.17187,0.75 0.67187,1.15625 0.51563,0.39062 1.4375,0.39062 1,0 1.51563,-0.375 0.34375,-0.26562 0.34375,-0.70312 0,-0.29688 -0.1875,-0.48438 -0.1875,-0.1875 -0.875,-0.34375 -3.14063,-0.70312 -4,-1.26562 -1.15625,-0.79688 -1.15625,-2.21875 0,-1.28125 1,-2.15625 1.01562,-0.875 3.14062,-0.875 2.03125,0 3,0.65625 0.98438,0.65625 1.35938,1.95312 l -2.45313,0.45313 q -0.15625,-0.57813 -0.60937,-0.875 -0.4375,-0.3125 -1.25,-0.3125 -1.03125,0 -1.46875,0.29687 -0.29688,0.20313 -0.29688,0.51563 0,0.28125 0.25,0.48437 0.35938,0.25 2.4375,0.73438 2.07813,0.46875 2.90625,1.15625 0.82813,0.6875 0.82813,1.9375 0,1.35937 -1.14063,2.32812 -1.125,0.96875 -3.34375,0.96875 -2.01562,0 -3.1875,-0.8125 -1.17187,-0.8125 -1.53125,-2.21875 z"
       id="path3501"
       inkscape:connector-curvature="0"
       style="fill:#000000;fill-rule:nonzero" />
    <path
       d="m 443.5223,502.86642 0,0 c 0,-7.9061 6.40915,-14.31525 14.31525,-14.31525 l 133.44827,0 c 3.79663,0 7.43774,1.50821 10.12237,4.19284 2.68463,2.68463 4.19287,6.32578 4.19287,10.12241 l 0,57.25925 c 0,7.90612 -6.40918,14.31524 -14.31524,14.31524 l -133.44827,0 c -7.9061,0 -14.31525,-6.40912 -14.31525,-14.31524 z"
       id="path3503"
       inkscape:connector-curvature="0"
       style="fill:#ffffff;fill-rule:nonzero" />
    <path
       d="m 443.5223,502.86642 0,0 c 0,-7.9061 6.40915,-14.31525 14.31525,-14.31525 l 133.44827,0 c 3.79663,0 7.43774,1.50821 10.12237,4.19284 2.68463,2.68463 4.19287,6.32578 4.19287,10.12241 l 0,57.25925 c 0,7.90612 -6.40918,14.31524 -14.31524,14.31524 l -133.44827,0 c -7.9061,0 -14.31525,-6.40912 -14.31525,-14.31524 z"
       id="path3505"
       inkscape:connector-curvature="0"
       style="stroke:#000000;stroke-width:4.48860788;stroke-linecap:butt;stroke-linejoin:round" />
    <path
       d="m 500.55957,538.4161 0,-13.59375 2.75,0 0,5.34375 5.375,0 0,-5.34375 2.75,0 0,13.59375 -2.75,0 0,-5.95312 -5.375,0 0,5.95312 -2.75,0 z m 13.45734,-13.59375 5.01562,0 q 1.70313,0 2.59375,0.25 1.1875,0.35938 2.04688,1.26563 0.85937,0.89062 1.29687,2.20312 0.45313,1.29688 0.45313,3.20313 0,1.6875 -0.42188,2.89062 -0.51562,1.48438 -1.45312,2.40625 -0.71875,0.70313 -1.9375,1.09375 -0.90625,0.28125 -2.42188,0.28125 l -5.17187,0 0,-13.59375 z m 2.75,2.29688 0,9 2.04687,0 q 1.14063,0 1.65625,-0.125 0.67188,-0.17188 1.10938,-0.5625 0.4375,-0.40625 0.71875,-1.3125 0.28125,-0.92188 0.28125,-2.5 0,-1.57813 -0.28125,-2.42188 -0.28125,-0.84375 -0.78125,-1.3125 -0.5,-0.46875 -1.26563,-0.64062 -0.57812,-0.125 -2.25,-0.125 l -1.23437,0 z m 10.75421,11.29687 0,-13.59375 9.3125,0 0,2.29688 -6.57813,0 0,3.21875 5.6875,0 0,2.29687 -5.6875,0 0,5.78125 -2.73437,0 z m 10.67718,-4.42187 2.67188,-0.26563 q 0.23437,1.34375 0.96875,1.98438 0.75,0.625 2,0.625 1.32812,0 2,-0.5625 0.67187,-0.5625 0.67187,-1.3125 0,-0.48438 -0.28125,-0.8125 -0.28125,-0.34375 -0.98437,-0.59375 -0.48438,-0.17188 -2.20313,-0.59375 -2.20312,-0.54688 -3.09375,-1.34375 -1.26562,-1.125 -1.26562,-2.73438 0,-1.04687 0.59375,-1.95312 0.59375,-0.90625 1.70312,-1.375 1.10938,-0.46875 2.67188,-0.46875 2.5625,0 3.85937,1.125 1.29688,1.10937 1.35938,2.98437 l -2.75,0.125 q -0.17188,-1.04687 -0.75,-1.5 -0.57813,-0.46875 -1.75,-0.46875 -1.1875,0 -1.875,0.5 -0.4375,0.3125 -0.4375,0.84375 0,0.48438 0.42187,0.82813 0.51563,0.42187 2.51563,0.90625 2,0.46875 2.95312,0.98437 0.96875,0.5 1.51563,1.375 0.54687,0.875 0.54687,2.15625 0,1.17188 -0.65625,2.20313 -0.64062,1.01562 -1.82812,1.51562 -1.1875,0.48438 -2.96875,0.48438 -2.57813,0 -3.96875,-1.1875 -1.375,-1.1875 -1.64063,-3.46875 z"
       id="path3507"
       inkscape:connector-curvature="0"
       style="fill:#000000;fill-rule:nonzero" />
    <path
       d="m 626.01575,502.86642 0,0 c 0,-7.9061 6.40918,-14.31525 14.31525,-14.31525 l 133.44824,0 c 3.79663,0 7.4378,1.50821 10.12243,4.19284 2.68464,2.68463 4.19281,6.32578 4.19281,10.12241 l 0,57.25925 c 0,7.90612 -6.40911,14.31524 -14.31524,14.31524 l -133.44824,0 c -7.90607,0 -14.31525,-6.40912 -14.31525,-14.31524 z"
       id="path3509"
       inkscape:connector-curvature="0"
       style="fill:#ffffff;fill-rule:nonzero" />
    <path
       d="m 626.01575,502.86642 0,0 c 0,-7.9061 6.40918,-14.31525 14.31525,-14.31525 l 133.44824,0 c 3.79663,0 7.4378,1.50821 10.12243,4.19284 2.68464,2.68463 4.19281,6.32578 4.19281,10.12241 l 0,57.25925 c 0,7.90612 -6.40911,14.31524 -14.31524,14.31524 l -133.44824,0 c -7.90607,0 -14.31525,-6.40912 -14.31525,-14.31524 z"
       id="path3511"
       inkscape:connector-curvature="0"
       style="stroke:#000000;stroke-width:4.48860788;stroke-linecap:butt;stroke-linejoin:round" />
    <path
       d="m 696.33295,533.9942 2.67187,-0.26563 q 0.23438,1.34375 0.96875,1.98438 0.75,0.625 2,0.625 1.32813,0 2,-0.5625 0.67188,-0.5625 0.67188,-1.3125 0,-0.48438 -0.28125,-0.8125 -0.28125,-0.34375 -0.98438,-0.59375 -0.48437,-0.17188 -2.20312,-0.59375 -2.20313,-0.54688 -3.09375,-1.34375 -1.26563,-1.125 -1.26563,-2.73438 0,-1.04687 0.59375,-1.95312 0.59375,-0.90625 1.70313,-1.375 1.10937,-0.46875 2.67187,-0.46875 2.5625,0 3.85938,1.125 1.29687,1.10937 1.35937,2.98437 l -2.75,0.125 q -0.17187,-1.04687 -0.75,-1.5 -0.57812,-0.46875 -1.75,-0.46875 -1.1875,0 -1.875,0.5 -0.4375,0.3125 -0.4375,0.84375 0,0.48438 0.42188,0.82813 0.51562,0.42187 2.51562,0.90625 2,0.46875 2.95313,0.98437 0.96875,0.5 1.51562,1.375 0.54688,0.875 0.54688,2.15625 0,1.17188 -0.65625,2.20313 -0.64063,1.01562 -1.82813,1.51562 -1.1875,0.48438 -2.96875,0.48438 -2.57812,0 -3.96875,-1.1875 -1.375,-1.1875 -1.64062,-3.46875 z m 12.47485,0.8125 2.51563,-0.3125 q 0.125,0.96875 0.65625,1.48437 0.53125,0.5 1.28125,0.5 0.79687,0 1.34375,-0.60937 0.5625,-0.60938 0.5625,-1.64063 0,-0.98437 -0.53125,-1.5625 -0.53125,-0.57812 -1.28125,-0.57812 -0.5,0 -1.20313,0.20312 l 0.28125,-2.125 q 1.0625,0.0156 1.60938,-0.46875 0.5625,-0.48437 0.5625,-1.29687 0,-0.6875 -0.40625,-1.09375 -0.40625,-0.40625 -1.07813,-0.40625 -0.67187,0 -1.14062,0.46875 -0.46875,0.46875 -0.57813,1.35937 l -2.40625,-0.42187 q 0.25,-1.23438 0.75,-1.96875 0.51563,-0.73438 1.42188,-1.15625 0.90625,-0.42188 2.03125,-0.42188 1.90625,0 3.07812,1.21875 0.95313,1 0.95313,2.26563 0,1.79687 -1.95313,2.85937 1.15625,0.25 1.85938,1.125 0.70312,0.875 0.70312,2.10938 0,1.78125 -1.3125,3.04687 -1.29687,1.26563 -3.25,1.26563 -1.84375,0 -3.0625,-1.0625 -1.21875,-1.0625 -1.40625,-2.78125 z"
       id="path3513"
       inkscape:connector-curvature="0"
       style="fill:#000000;fill-rule:nonzero" />
    <path
       d="m 808.5092,500.36243 0,0 c 0,-6.52316 5.28802,-11.81125 11.81122,-11.81125 l 47.24365,0 0,0 c 3.13251,0 6.13678,1.24442 8.35181,3.45944 2.21502,2.21503 3.45941,5.21927 3.45941,8.35181 l 0,62.26727 c 0,6.5232 -5.28809,11.81122 -11.81122,11.81122 l -47.24365,0 c -6.52319,0 -11.81122,-5.28802 -11.81122,-11.81122 z"
       id="path3515"
       inkscape:connector-curvature="0"
       style="fill:#ffffff;fill-rule:nonzero" />
    <path
       d="m 808.5092,500.36243 0,0 c 0,-6.52316 5.28802,-11.81125 11.81122,-11.81125 l 47.24365,0 0,0 c 3.13251,0 6.13678,1.24442 8.35181,3.45944 2.21502,2.21503 3.45941,5.21927 3.45941,8.35181 l 0,62.26727 c 0,6.5232 -5.28809,11.81122 -11.81122,11.81122 l -47.24365,0 c -6.52319,0 -11.81122,-5.28802 -11.81122,-11.81122 z"
       id="path3517"
       inkscape:connector-curvature="0"
       style="stroke:#000000;stroke-width:4.48860788;stroke-linecap:butt;stroke-linejoin:round" />
    <path
       d="m 837.5267,538.4161 0,-2.60937 2.60937,0 0,2.60937 -2.60937,0 z m 5.18329,0 0,-2.60937 2.60937,0 0,2.60937 -2.60937,0 z m 5.18335,0 0,-2.60937 2.60937,0 0,2.60937 -2.60937,0 z"
       id="path3519"
       inkscape:connector-curvature="0"
       style="fill:#000000;fill-rule:nonzero" />
    <path
       d="m 65.30971,488.55118 181.5433,0 0,85.88974 -181.5433,0 z"
       id="path3521"
       inkscape:connector-curvature="0"
       style="fill:#000000;fill-opacity:0;fill-rule:nonzero" />
    <path
       d="m 97.6673,535.76294 4.5,-0.4375 q 0.40625,2.26562 1.64062,3.32812 1.25,1.0625 3.35938,1.0625 2.23437,0 3.35937,-0.9375 1.14063,-0.95312 1.14063,-2.21875 0,-0.8125 -0.48438,-1.375 -0.46875,-0.57812 -1.65625,-1 -0.8125,-0.28125 -3.70312,-1 -3.71875,-0.92187 -5.21875,-2.26562 -2.109375,-1.89063 -2.109375,-4.60938 0,-1.75 0.984375,-3.26562 1,-1.53125 2.85937,-2.32813 1.875,-0.79687 4.51563,-0.79687 4.3125,0 6.48437,1.89062 2.1875,1.89063 2.29688,5.04688 l -4.625,0.20312 q -0.29688,-1.76562 -1.28125,-2.53125 -0.96875,-0.78125 -2.92188,-0.78125 -2.01562,0 -3.15625,0.82813 -0.73437,0.53125 -0.73437,1.42187 0,0.8125 0.6875,1.39063 0.875,0.73437 4.25,1.53125 3.375,0.79687 4.98437,1.65625 1.625,0.84375 2.53125,2.32812 0.92188,1.46875 0.92188,3.64063 0,1.96875 -1.09375,3.6875 -1.09375,1.71875 -3.09375,2.5625 -2,0.82812 -4.98438,0.82812 -4.34375,0 -6.67187,-2 -2.328125,-2.01562 -2.78125,-5.85937 z m 30.09375,-9.14063 0,3.5 -3,0 0,6.6875 q 0,2.03125 0.0781,2.375 0.0937,0.32813 0.39063,0.54688 0.3125,0.21875 0.75,0.21875 0.60937,0 1.76562,-0.42188 l 0.375,3.40625 q -1.53124,0.65625 -3.46874,0.65625 -1.1875,0 -2.14063,-0.39062 -0.95312,-0.40625 -1.40625,-1.03125 -0.4375,-0.64063 -0.60937,-1.71875 -0.14063,-0.76563 -0.14063,-3.09375 l 0,-7.23438 -2.01562,0 0,-3.5 2.01562,0 0,-3.29687 4.40625,-2.5625 0,5.85937 3,0 z m 2.03125,8.0625 q 0,-2.1875 1.07812,-4.23437 1.07813,-2.04688 3.04688,-3.125 1.98437,-1.07813 4.42187,-1.07813 3.76563,0 6.17188,2.45313 2.40625,2.4375 2.40625,6.17187 0,3.76563 -2.4375,6.25 -2.42188,2.46875 -6.10938,2.46875 -2.28125,0 -4.35937,-1.03125 -2.0625,-1.03125 -3.14063,-3.01562 -1.07812,-2 -1.07812,-4.85938 z m 4.5,0.23438 q 0,2.46875 1.17187,3.78125 1.17188,1.3125 2.89063,1.3125 1.71875,0 2.875,-1.3125 1.17187,-1.3125 1.17187,-3.8125 0,-2.4375 -1.17187,-3.75 -1.15625,-1.3125 -2.875,-1.3125 -1.71875,0 -2.89063,1.3125 -1.17187,1.3125 -1.17187,3.78125 z m 20.26562,8.29687 -4.39062,0 0,-16.59375 4.07812,0 0,2.35938 q 1.04688,-1.67188 1.875,-2.20313 0.84375,-0.53125 1.90625,-0.53125 1.5,0 2.89063,0.82813 l -1.35938,3.82812 q -1.10937,-0.71875 -2.0625,-0.71875 -0.92187,0 -1.5625,0.51563 -0.64062,0.5 -1.01562,1.82812 -0.35938,1.32813 -0.35938,5.5625 l 0,5.125 z m 11.53125,-11.53125 -3.98437,-0.71875 q 0.67187,-2.40625 2.3125,-3.5625 1.64062,-1.15625 4.875,-1.15625 2.9375,0 4.375,0.70313 1.4375,0.6875 2.01562,1.76562 0.59375,1.0625 0.59375,3.92188 l -0.0469,5.125 q 0,2.1875 0.20312,3.23437 0.21875,1.03125 0.79688,2.21875 l -4.34375,0 q -0.17188,-0.4375 -0.42188,-1.29687 -0.10937,-0.39063 -0.15625,-0.51563 -1.125,1.09375 -2.40625,1.64063 -1.28125,0.54687 -2.73437,0.54687 -2.5625,0 -4.04688,-1.39062 -1.46875,-1.39063 -1.46875,-3.51563 0,-1.40625 0.67188,-2.5 0.67187,-1.10937 1.875,-1.6875 1.21875,-0.59375 3.5,-1.03125 3.07812,-0.57812 4.26562,-1.07812 l 0,-0.4375 q 0,-1.26563 -0.625,-1.79688 -0.625,-0.54687 -2.35937,-0.54687 -1.17188,0 -1.82813,0.46875 -0.65625,0.45312 -1.0625,1.60937 z m 5.875,3.5625 q -0.84375,0.28125 -2.67187,0.67188 -1.82813,0.39062 -2.39063,0.76562 -0.85937,0.60938 -0.85937,1.54688 0,0.92187 0.6875,1.59375 0.6875,0.67187 1.75,0.67187 1.1875,0 2.26562,-0.78125 0.79688,-0.59375 1.04688,-1.45312 0.17187,-0.5625 0.17187,-2.14063 l 0,-0.875 z m 8.23438,9.0625 5.01562,0.60938 q 0.125,0.875 0.57813,1.20312 0.625,0.46875 1.96875,0.46875 1.71875,0 2.57812,-0.51562 0.57813,-0.34375 0.875,-1.10938 0.20313,-0.54687 0.20313,-2.01562 l 0,-2.42188 q -1.96875,2.6875 -4.96875,2.6875 -3.34375,0 -5.29688,-2.82812 -1.53125,-2.23438 -1.53125,-5.5625 0,-4.17188 2,-6.375 2.01563,-2.20313 5,-2.20313 3.07813,0 5.07813,2.70313 l 0,-2.32813 4.10937,0 0,14.89063 q 0,2.9375 -0.48437,4.39062 -0.48438,1.45313 -1.35938,2.28125 -0.875,0.82813 -2.34375,1.29688 -1.45312,0.46875 -3.6875,0.46875 -4.21875,0 -5.98437,-1.45313 -1.76563,-1.4375 -1.76563,-3.65625 0,-0.21875 0.0156,-0.53125 z m 3.92187,-9.73437 q 0,2.64062 1.01563,3.875 1.03125,1.21875 2.53125,1.21875 1.60937,0 2.71875,-1.25 1.10937,-1.26563 1.10937,-3.73438 0,-2.57812 -1.0625,-3.82812 -1.0625,-1.25 -2.6875,-1.25 -1.57812,0 -2.60937,1.23437 -1.01563,1.21875 -1.01563,3.73438 z m 25.64063,3.35937 4.375,0.73438 q -0.84375,2.40625 -2.67188,3.67187 -1.8125,1.25 -4.54687,1.25 -4.32813,0 -6.40625,-2.82812 -1.64063,-2.26563 -1.64063,-5.71875 0,-4.125 2.15625,-6.45313 2.15625,-2.34375 5.45313,-2.34375 3.70312,0 5.84375,2.45313 2.14062,2.4375 2.04687,7.48437 l -11,0 q 0.0469,1.95313 1.0625,3.04688 1.01563,1.07812 2.53125,1.07812 1.03125,0 1.73438,-0.5625 0.70312,-0.5625 1.0625,-1.8125 z m 0.25,-4.4375 q -0.0469,-1.90625 -0.98438,-2.89062 -0.9375,-1 -2.28125,-1 -1.4375,0 -2.375,1.04687 -0.9375,1.04688 -0.92187,2.84375 l 6.5625,0 z"
       id="path3523"
       inkscape:connector-curvature="0"
       style="fill:#000000;fill-rule:nonzero" />
    <path
       d="m 34.490814,368.8954 0,0 c 0,-10.19064 8.261158,-18.45181 18.451813,-18.45181 l 827.096403,0 c 4.89374,0 9.58703,1.94403 13.04742,5.40442 3.46039,3.46038 5.40436,8.15365 5.40436,13.04739 l 0,73.80502 c 0,10.19067 -8.26111,18.45181 -18.45178,18.45181 l -827.096403,0 c -10.190655,0 -18.451813,-8.26114 -18.451813,-18.45181 z"
       id="path3525"
       inkscape:connector-curvature="0"
       style="fill:#b4a7d6;fill-rule:nonzero" />
    <path
       d="m 34.490814,368.8954 0,0 c 0,-10.19064 8.261158,-18.45181 18.451813,-18.45181 l 827.096403,0 c 4.89374,0 9.58703,1.94403 13.04742,5.40442 3.46039,3.46038 5.40436,8.15365 5.40436,13.04739 l 0,73.80502 c 0,10.19067 -8.26111,18.45181 -18.45178,18.45181 l -827.096403,0 c -10.190655,0 -18.451813,-8.26114 -18.451813,-18.45181 z"
       id="path3527"
       inkscape:connector-curvature="0"
       style="stroke:#000000;stroke-width:4.48860788;stroke-linecap:butt;stroke-linejoin:round" />
    <path
       d="m 261.02887,377.16827 0,0 c 0,-7.9061 6.40915,-14.31525 14.31525,-14.31525 l 133.44824,0 c 3.79663,0 7.43777,1.50821 10.1224,4.19284 2.68463,2.68463 4.19284,6.32575 4.19284,10.12241 l 0,57.25925 c 0,7.90609 -6.40915,14.31524 -14.31524,14.31524 l -133.44824,0 c -7.9061,0 -14.31525,-6.40915 -14.31525,-14.31524 z"
       id="path3529"
       inkscape:connector-curvature="0"
       style="fill:#ffffff;fill-rule:nonzero" />
    <path
       d="m 261.02887,377.16827 0,0 c 0,-7.9061 6.40915,-14.31525 14.31525,-14.31525 l 133.44824,0 c 3.79663,0 7.43777,1.50821 10.1224,4.19284 2.68463,2.68463 4.19284,6.32575 4.19284,10.12241 l 0,57.25925 c 0,7.90609 -6.40915,14.31524 -14.31524,14.31524 l -133.44824,0 c -7.9061,0 -14.31525,-6.40915 -14.31525,-14.31524 z"
       id="path3531"
       inkscape:connector-curvature="0"
       style="stroke:#000000;stroke-width:4.48860788;stroke-linecap:butt;stroke-linejoin:round" />
    <path
       d="m 320.59015,412.7179 0,-5.71875 -4.98438,-7.875 3.21875,0 3.20313,5.375 3.14062,-5.375 3.15625,0 -5,7.89062 0,5.70313 -2.73437,0 z m 21.13107,0 -2.98437,0 -1.1875,-3.09375 -5.4375,0 -1.125,3.09375 -2.90625,0 5.29687,-13.59375 2.90625,0 5.4375,13.59375 z m -5.04687,-5.375 -1.875,-5.04688 -1.84375,5.04688 3.71875,0 z m 6.26983,5.375 0,-13.59375 5.78125,0 q 2.1875,0 3.17188,0.35937 0.98437,0.35938 1.57812,1.29688 0.59375,0.9375 0.59375,2.15625 0,1.53125 -0.90625,2.53125 -0.89062,0.98437 -2.6875,1.25 0.89063,0.51562 1.46875,1.14062 0.57813,0.625 1.5625,2.20313 l 1.67188,2.65625 -3.29688,0 -1.98437,-2.95313 q -1.04688,-1.59375 -1.4375,-2 -0.39063,-0.42187 -0.82813,-0.5625 -0.4375,-0.15625 -1.39062,-0.15625 l -0.54688,0 0,5.67188 -2.75,0 z m 2.75,-7.84375 2.03125,0 q 1.96875,0 2.45313,-0.17188 0.5,-0.17187 0.78125,-0.57812 0.28125,-0.40625 0.28125,-1.01563 0,-0.6875 -0.375,-1.10937 -0.35938,-0.42188 -1.03125,-0.53125 -0.32813,-0.0469 -2,-0.0469 l -2.14063,0 0,3.45313 z m 10.73856,7.84375 0,-13.59375 2.67188,0 5.57812,9.07812 0,-9.07812 2.54688,0 0,13.59375 -2.76563,0 -5.46875,-8.875 0,8.875 -2.5625,0 z"
       id="path3533"
       inkscape:connector-curvature="0"
       style="fill:#000000;fill-rule:nonzero" />
    <path
       d="m 443.5223,377.16827 0,0 c 0,-7.9061 6.40915,-14.31525 14.31525,-14.31525 l 133.44827,0 c 3.79663,0 7.43774,1.50821 10.12237,4.19284 2.68463,2.68463 4.19287,6.32575 4.19287,10.12241 l 0,57.25925 c 0,7.90609 -6.40918,14.31524 -14.31524,14.31524 l -133.44827,0 c -7.9061,0 -14.31525,-6.40915 -14.31525,-14.31524 z"
       id="path3535"
       inkscape:connector-curvature="0"
       style="fill:#ffffff;fill-rule:nonzero" />
    <path
       d="m 443.5223,377.16827 0,0 c 0,-7.9061 6.40915,-14.31525 14.31525,-14.31525 l 133.44827,0 c 3.79663,0 7.43774,1.50821 10.12237,4.19284 2.68463,2.68463 4.19287,6.32575 4.19287,10.12241 l 0,57.25925 c 0,7.90609 -6.40918,14.31524 -14.31524,14.31524 l -133.44827,0 c -7.9061,0 -14.31525,-6.40915 -14.31525,-14.31524 z"
       id="path3537"
       inkscape:connector-curvature="0"
       style="stroke:#000000;stroke-width:4.48860788;stroke-linecap:butt;stroke-linejoin:round" />
    <path
       d="m 499.49637,399.12415 5.01563,0 q 1.70312,0 2.59375,0.25 1.1875,0.35937 2.04687,1.26562 0.85938,0.89063 1.29688,2.20313 0.45312,1.29687 0.45312,3.20312 0,1.6875 -0.42187,2.89063 -0.51563,1.48437 -1.45313,2.40625 -0.71875,0.70312 -1.9375,1.09375 -0.90625,0.28125 -2.42187,0.28125 l -5.17188,0 0,-13.59375 z m 2.75,2.29687 0,9 2.04688,0 q 1.14062,0 1.65625,-0.125 0.67187,-0.17187 1.10937,-0.5625 0.4375,-0.40625 0.71875,-1.3125 0.28125,-0.92187 0.28125,-2.5 0,-1.57812 -0.28125,-2.42187 -0.28125,-0.84375 -0.78125,-1.3125 -0.5,-0.46875 -1.26562,-0.64063 -0.57813,-0.125 -2.25,-0.125 l -1.23438,0 z m 10.70731,0.10938 0,-2.40625 2.60937,0 0,2.40625 -2.60937,0 z m 0,11.1875 0,-9.85938 2.60937,0 0,9.85938 -2.60937,0 z m 7.68328,0 -2.60937,0 0,-9.85938 2.42187,0 0,1.40625 q 0.625,-0.98437 1.10938,-1.29687 0.5,-0.32813 1.14062,-0.32813 0.89063,0 1.71875,0.5 l -0.8125,2.26563 q -0.65625,-0.42188 -1.21875,-0.42188 -0.54687,0 -0.9375,0.29688 -0.375,0.29687 -0.59375,1.09375 -0.21875,0.78125 -0.21875,3.29687 l 0,3.04688 z m 10.46344,-3.14063 2.60938,0.4375 q -0.5,1.4375 -1.59375,2.1875 -1.07813,0.73438 -2.70313,0.73438 -2.5625,0 -3.79687,-1.67188 -0.96875,-1.34375 -0.96875,-3.40625 0,-2.4375 1.26562,-3.82812 1.28125,-1.39063 3.25,-1.39063 2.1875,0 3.45313,1.45313 1.28125,1.45312 1.23437,4.45312 l -6.53125,0 q 0.0156,1.15625 0.625,1.8125 0.60938,0.64063 1.5,0.64063 0.60938,0 1.03125,-0.32813 0.42188,-0.34375 0.625,-1.09375 z m 0.15625,-2.625 q -0.0312,-1.14062 -0.59375,-1.71875 -0.54687,-0.59375 -1.34375,-0.59375 -0.85937,0 -1.40625,0.625 -0.5625,0.60938 -0.54687,1.6875 l 3.89062,0 z m 13.11005,-1.17187 -2.5625,0.46875 q -0.14062,-0.78125 -0.59375,-1.17188 -0.45312,-0.39062 -1.1875,-0.39062 -0.98437,0 -1.5625,0.67187 -0.57812,0.67188 -0.57812,2.25 0,1.76563 0.57812,2.48438 0.59375,0.71875 1.59375,0.71875 0.75,0 1.21875,-0.42188 0.46875,-0.42187 0.67188,-1.45312 l 2.54687,0.4375 q -0.39062,1.76562 -1.53125,2.67187 -1.125,0.89063 -3.03125,0.89063 -2.15625,0 -3.45312,-1.35938 -1.28125,-1.35937 -1.28125,-3.78125 0,-2.4375 1.29687,-3.79687 1.29688,-1.35938 3.48438,-1.35938 1.79687,0 2.85937,0.78125 1.0625,0.76563 1.53125,2.35938 z m 6.29761,-2.92188 0,2.07813 -1.78125,0 0,3.98437 q 0,1.20313 0.0469,1.40625 0.0625,0.1875 0.23438,0.32813 0.1875,0.125 0.45312,0.125 0.35938,0 1.04688,-0.25 l 0.21875,2.01562 q -0.90625,0.39063 -2.0625,0.39063 -0.70313,0 -1.26563,-0.23438 -0.5625,-0.23437 -0.82812,-0.60937 -0.26563,-0.375 -0.375,-1.01563 -0.0781,-0.45312 -0.0781,-1.84375 l 0,-4.29687 -1.20312,0 0,-2.07813 1.20312,0 0,-1.95312 2.60938,-1.51563 0,3.46875 1.78125,0 z"
       id="path3539"
       inkscape:connector-curvature="0"
       style="fill:#000000;fill-rule:nonzero" />
    <path
       d="m 626.01575,377.16827 0,0 c 0,-7.9061 6.40918,-14.31525 14.31525,-14.31525 l 133.44824,0 c 3.79663,0 7.4378,1.50821 10.12243,4.19284 2.68464,2.68463 4.19281,6.32575 4.19281,10.12241 l 0,57.25925 c 0,7.90609 -6.40911,14.31524 -14.31524,14.31524 l -133.44824,0 c -7.90607,0 -14.31525,-6.40915 -14.31525,-14.31524 z"
       id="path3541"
       inkscape:connector-curvature="0"
       style="fill:#ffffff;fill-rule:nonzero" />
    <path
       d="m 626.01575,377.16827 0,0 c 0,-7.9061 6.40918,-14.31525 14.31525,-14.31525 l 133.44824,0 c 3.79663,0 7.4378,1.50821 10.12243,4.19284 2.68464,2.68463 4.19281,6.32575 4.19281,10.12241 l 0,57.25925 c 0,7.90609 -6.40911,14.31524 -14.31524,14.31524 l -133.44824,0 c -7.90607,0 -14.31525,-6.40915 -14.31525,-14.31524 z"
       id="path3543"
       inkscape:connector-curvature="0"
       style="stroke:#000000;stroke-width:4.48860788;stroke-linecap:butt;stroke-linejoin:round" />
    <path
       d="m 690.284,412.7179 0,-13.59375 10.09375,0 0,2.29687 -7.34375,0 0,3.01563 6.82812,0 0,2.28125 -6.82812,0 0,3.70312 7.60937,0 0,2.29688 -10.35937,0 z m 21.14673,-5 2.67187,0.84375 q -0.60937,2.21875 -2.04687,3.3125 -1.42188,1.07812 -3.60938,1.07812 -2.70312,0 -4.45312,-1.84375 -1.73438,-1.85937 -1.73438,-5.07812 0,-3.39063 1.75,-5.26563 1.75,-1.875 4.60938,-1.875 2.5,0 4.04687,1.46875 0.9375,0.875 1.39063,2.5 l -2.71875,0.65625 q -0.23438,-1.0625 -1,-1.67187 -0.76563,-0.60938 -1.85938,-0.60938 -1.51562,0 -2.45312,1.09375 -0.9375,1.07813 -0.9375,3.5 0,2.57813 0.92187,3.6875 0.92188,1.09375 2.40625,1.09375 1.10938,0 1.89063,-0.6875 0.78125,-0.70312 1.125,-2.20312 z m 13.00415,2.57812 0,2.42188 -9.14063,0 q 0.15625,-1.375 0.89063,-2.59375 0.75,-1.23438 2.9375,-3.26563 1.76562,-1.64062 2.15625,-2.23437 0.54687,-0.79688 0.54687,-1.59375 0,-0.875 -0.46875,-1.34375 -0.46875,-0.46875 -1.29687,-0.46875 -0.8125,0 -1.29688,0.5 -0.48437,0.48437 -0.5625,1.625 l -2.59375,-0.25 q 0.23438,-2.15625 1.45313,-3.09375 1.21875,-0.9375 3.0625,-0.9375 2.01562,0 3.15625,1.09375 1.15625,1.07812 1.15625,2.6875 0,0.92187 -0.32813,1.75 -0.32812,0.82812 -1.04687,1.73437 -0.46875,0.60938 -1.70313,1.75 -1.23437,1.125 -1.5625,1.5 -0.32812,0.35938 -0.53125,0.71875 l 5.17188,0 z"
       id="path3545"
       inkscape:connector-curvature="0"
       style="fill:#000000;fill-rule:nonzero" />
    <path
       d="m 65.30971,362.85303 181.5433,0 0,85.88974 -181.5433,0 z"
       id="path3547"
       inkscape:connector-curvature="0"
       style="fill:#000000;fill-opacity:0;fill-rule:nonzero" />
    <path
       d="m 117.94074,390.09604 4.48437,1.42188 q -1.03125,3.75 -3.4375,5.57812 -2.39062,1.8125 -6.07812,1.8125 -4.5625,0 -7.5,-3.10937 -2.9375,-3.125 -2.9375,-8.53125 0,-5.71875 2.95312,-8.875 2.95313,-3.17188 7.76563,-3.17188 4.20312,0 6.82812,2.48438 1.5625,1.46875 2.34375,4.21875 l -4.57812,1.09375 q -0.40625,-1.78125 -1.70313,-2.8125 -1.28125,-1.03125 -3.125,-1.03125 -2.54687,0 -4.14062,1.82812 -1.57813,1.82813 -1.57813,5.92188 0,4.34375 1.5625,6.1875 1.5625,1.84375 4.0625,1.84375 1.84375,0 3.17188,-1.17188 1.32812,-1.17187 1.90625,-3.6875 z m 8.42187,8.42188 0,-22.90625 4.39063,0 0,22.90625 -4.39063,0 z m 19.8125,0 0,-2.48438 q -0.90625,1.32813 -2.39062,2.09375 -1.46875,0.76563 -3.10938,0.76563 -1.67187,0 -3,-0.73438 -1.32812,-0.73437 -1.92187,-2.0625 -0.59375,-1.32812 -0.59375,-3.67187 l 0,-10.5 4.39062,0 0,7.625 q 0,3.5 0.23438,4.29687 0.25,0.78125 0.89062,1.25 0.64063,0.45313 1.625,0.45313 1.125,0 2.01563,-0.60938 0.89062,-0.625 1.21875,-1.53125 0.32812,-0.92187 0.32812,-4.48437 l 0,-7 4.39063,0 0,16.59375 -4.07813,0 z m 7.07813,-4.73438 4.40625,-0.67187 q 0.28125,1.28125 1.14062,1.95312 0.85938,0.65625 2.40625,0.65625 1.70313,0 2.5625,-0.625 0.57813,-0.4375 0.57813,-1.17187 0,-0.5 -0.3125,-0.82813 -0.32813,-0.3125 -1.46875,-0.57812 -5.3125,-1.17188 -6.73438,-2.14063 -1.96875,-1.34375 -1.96875,-3.73437 0,-2.15625 1.70313,-3.625 1.70312,-1.46875 5.28125,-1.46875 3.40625,0 5.0625,1.10937 1.65625,1.10938 2.28125,3.28125 l -4.14063,0.76563 q -0.26562,-0.96875 -1.01562,-1.48438 -0.73438,-0.51562 -2.10938,-0.51562 -1.73437,0 -2.48437,0.48437 -0.5,0.34375 -0.5,0.89063 0,0.46875 0.4375,0.79687 0.59375,0.4375 4.09375,1.23438 3.51562,0.79687 4.90625,1.95312 1.375,1.17188 1.375,3.26563 0,2.28125 -1.90625,3.92187 -1.90625,1.64063 -5.64063,1.64063 -3.39062,0 -5.375,-1.375 -1.96875,-1.375 -2.57812,-3.73438 z m 26.95312,-11.85937 0,3.5 -3,0 0,6.6875 q 0,2.03125 0.0781,2.375 0.0937,0.32812 0.39062,0.54687 0.3125,0.21875 0.75,0.21875 0.60938,0 1.76563,-0.42187 l 0.375,3.40625 q -1.53125,0.65625 -3.46875,0.65625 -1.1875,0 -2.14063,-0.39063 -0.95312,-0.40625 -1.40625,-1.03125 -0.4375,-0.64062 -0.60937,-1.71875 -0.14063,-0.76562 -0.14063,-3.09375 l 0,-7.23437 -2.01562,0 0,-3.5 2.01562,0 0,-3.29688 4.40625,-2.5625 0,5.85938 3,0 z m 12.65625,11.3125 4.375,0.73437 q -0.84375,2.40625 -2.67187,3.67188 -1.8125,1.25 -4.54688,1.25 -4.32812,0 -6.40625,-2.82813 -1.64062,-2.26562 -1.64062,-5.71875 0,-4.125 2.15625,-6.45312 2.15625,-2.34375 5.45312,-2.34375 3.70313,0 5.84375,2.45312 2.14063,2.4375 2.04688,7.48438 l -11,0 q 0.0469,1.95312 1.0625,3.04687 1.01562,1.07813 2.53125,1.07813 1.03125,0 1.73437,-0.5625 0.70313,-0.5625 1.0625,-1.8125 z m 0.25,-4.4375 q -0.0469,-1.90625 -0.98437,-2.89063 -0.9375,-1 -2.28125,-1 -1.4375,0 -2.375,1.04688 -0.9375,1.04687 -0.92188,2.84375 l 6.5625,0 z m 12.14063,9.71875 -4.39063,0 0,-16.59375 4.07813,0 0,2.35937 q 1.04687,-1.67187 1.875,-2.20312 0.84375,-0.53125 1.90625,-0.53125 1.5,0 2.89062,0.82812 l -1.35937,3.82813 q -1.10938,-0.71875 -2.0625,-0.71875 -0.92188,0 -1.5625,0.51562 -0.64063,0.5 -1.01563,1.82813 -0.35937,1.32812 -0.35937,5.5625 l 0,5.125 z"
       id="path3549"
       inkscape:connector-curvature="0"
       style="fill:#000000;fill-rule:nonzero" />
    <path
       d="m 92.55011,436.5179 0,-22.90625 6.921875,0 4.156255,15.625 4.10937,-15.625 6.9375,0 0,22.90625 -4.29687,0 0,-18.03125 -4.54688,18.03125 -4.45312,0 -4.531255,-18.03125 0,18.03125 -4.296875,0 z m 29.96875,-11.53125 -3.98437,-0.71875 q 0.67187,-2.40625 2.3125,-3.5625 1.64062,-1.15625 4.875,-1.15625 2.9375,0 4.375,0.70312 1.4375,0.6875 2.01562,1.76563 0.59375,1.0625 0.59375,3.92187 l -0.0469,5.125 q 0,2.1875 0.20312,3.23438 0.21875,1.03125 0.79688,2.21875 l -4.34375,0 q -0.17188,-0.4375 -0.42188,-1.29688 -0.10937,-0.39062 -0.15625,-0.51562 -1.125,1.09375 -2.40625,1.64062 -1.28125,0.54688 -2.73437,0.54688 -2.5625,0 -4.04688,-1.39063 -1.46875,-1.39062 -1.46875,-3.51562 0,-1.40625 0.67188,-2.5 0.67187,-1.10938 1.875,-1.6875 1.21875,-0.59375 3.5,-1.03125 3.07812,-0.57813 4.26562,-1.07813 l 0,-0.4375 q 0,-1.26562 -0.625,-1.79687 -0.625,-0.54688 -2.35937,-0.54688 -1.17188,0 -1.82813,0.46875 -0.65625,0.45313 -1.0625,1.60938 z m 5.875,3.5625 q -0.84375,0.28125 -2.67187,0.67187 -1.82813,0.39063 -2.39063,0.76563 -0.85937,0.60937 -0.85937,1.54687 0,0.92188 0.6875,1.59375 0.6875,0.67188 1.75,0.67188 1.1875,0 2.26562,-0.78125 0.79688,-0.59375 1.04688,-1.45313 0.17187,-0.5625 0.17187,-2.14062 l 0,-0.875 z m 23.73438,7.96875 -4.39063,0 0,-8.46875 q 0,-2.6875 -0.28125,-3.46875 -0.28125,-0.79688 -0.92187,-1.23438 -0.625,-0.4375 -1.51563,-0.4375 -1.14062,0 -2.04687,0.625 -0.90625,0.625 -1.25,1.65625 -0.32813,1.03125 -0.32813,3.8125 l 0,7.51563 -4.39062,0 0,-16.59375 4.07812,0 0,2.4375 q 2.17188,-2.8125 5.46875,-2.8125 1.45313,0 2.65625,0.53125 1.20313,0.51562 1.8125,1.32812 0.625,0.8125 0.85938,1.84375 0.25,1.03125 0.25,2.95313 l 0,10.3125 z m 7.73437,-11.53125 -3.98437,-0.71875 q 0.67187,-2.40625 2.3125,-3.5625 1.64062,-1.15625 4.875,-1.15625 2.9375,0 4.375,0.70312 1.4375,0.6875 2.01562,1.76563 0.59375,1.0625 0.59375,3.92187 l -0.0469,5.125 q 0,2.1875 0.20312,3.23438 0.21875,1.03125 0.79688,2.21875 l -4.34375,0 q -0.17188,-0.4375 -0.42188,-1.29688 -0.10937,-0.39062 -0.15625,-0.51562 -1.125,1.09375 -2.40625,1.64062 -1.28125,0.54688 -2.73437,0.54688 -2.5625,0 -4.04688,-1.39063 -1.46875,-1.39062 -1.46875,-3.51562 0,-1.40625 0.67188,-2.5 0.67187,-1.10938 1.875,-1.6875 1.21875,-0.59375 3.5,-1.03125 3.07812,-0.57813 4.26562,-1.07813 l 0,-0.4375 q 0,-1.26562 -0.625,-1.79687 -0.625,-0.54688 -2.35937,-0.54688 -1.17188,0 -1.82813,0.46875 -0.65625,0.45313 -1.0625,1.60938 z m 5.875,3.5625 q -0.84375,0.28125 -2.67187,0.67187 -1.82813,0.39063 -2.39063,0.76563 -0.85937,0.60937 -0.85937,1.54687 0,0.92188 0.6875,1.59375 0.6875,0.67188 1.75,0.67188 1.1875,0 2.26562,-0.78125 0.79688,-0.59375 1.04688,-1.45313 0.17187,-0.5625 0.17187,-2.14062 l 0,-0.875 z m 8.23438,9.0625 5.01562,0.60937 q 0.125,0.875 0.57813,1.20313 0.625,0.46875 1.96875,0.46875 1.71875,0 2.57812,-0.51563 0.57813,-0.34375 0.875,-1.10937 0.20313,-0.54688 0.20313,-2.01563 l 0,-2.42187 q -1.96875,2.6875 -4.96875,2.6875 -3.34375,0 -5.29688,-2.82813 -1.53125,-2.23437 -1.53125,-5.5625 0,-4.17187 2,-6.375 2.01563,-2.20312 5,-2.20312 3.07813,0 5.07813,2.70312 l 0,-2.32812 4.10937,0 0,14.89062 q 0,2.9375 -0.48437,4.39063 -0.48438,1.45312 -1.35938,2.28125 -0.875,0.82812 -2.34375,1.29687 -1.45312,0.46875 -3.6875,0.46875 -4.21875,0 -5.98437,-1.45312 -1.76563,-1.4375 -1.76563,-3.65625 0,-0.21875 0.0156,-0.53125 z m 3.92187,-9.73438 q 0,2.64063 1.01563,3.875 1.03125,1.21875 2.53125,1.21875 1.60937,0 2.71875,-1.25 1.10937,-1.26562 1.10937,-3.73437 0,-2.57813 -1.0625,-3.82813 -1.0625,-1.25 -2.6875,-1.25 -1.57812,0 -2.60937,1.23438 -1.01563,1.21875 -1.01563,3.73437 z m 25.64063,3.35938 4.375,0.73437 q -0.84375,2.40625 -2.67188,3.67188 -1.8125,1.25 -4.54687,1.25 -4.32813,0 -6.40625,-2.82813 -1.64063,-2.26562 -1.64063,-5.71875 0,-4.125 2.15625,-6.45312 2.15625,-2.34375 5.45313,-2.34375 3.70312,0 5.84375,2.45312 2.14062,2.4375 2.04687,7.48438 l -11,0 q 0.0469,1.95312 1.0625,3.04687 1.01563,1.07813 2.53125,1.07813 1.03125,0 1.73438,-0.5625 0.70312,-0.5625 1.0625,-1.8125 z m 0.25,-4.4375 q -0.0469,-1.90625 -0.98438,-2.89063 -0.9375,-1 -2.28125,-1 -1.4375,0 -2.375,1.04688 -0.9375,1.04687 -0.92187,2.84375 l 6.5625,0 z m 12.14062,9.71875 -4.39062,0 0,-16.59375 4.07812,0 0,2.35937 q 1.04688,-1.67187 1.875,-2.20312 0.84375,-0.53125 1.90625,-0.53125 1.5,0 2.89063,0.82812 l -1.35938,3.82813 q -1.10937,-0.71875 -2.0625,-0.71875 -0.92187,0 -1.5625,0.51562 -0.64062,0.5 -1.01562,1.82813 -0.35938,1.32812 -0.35938,5.5625 l 0,5.125 z"
       id="path3551"
       inkscape:connector-curvature="0"
       style="fill:#000000;fill-rule:nonzero" />
    <path
       d="m 261.02887,263.87955 0,0 c 0,-7.90608 6.40915,-14.31525 14.31525,-14.31525 l 608.8183,0 c 3.79669,0 7.4378,1.50821 10.12243,4.19284 2.68464,2.68463 4.19281,6.32578 4.19281,10.12241 l 0,57.25928 c 0,7.90609 -6.40911,14.31524 -14.31524,14.31524 l -608.8183,0 c -7.9061,0 -14.31525,-6.40915 -14.31525,-14.31524 z"
       id="path3553"
       inkscape:connector-curvature="0"
       style="fill:#a7dbd8;fill-rule:nonzero" />
    <path
       d="m 261.02887,263.87955 0,0 c 0,-7.90608 6.40915,-14.31525 14.31525,-14.31525 l 608.8183,0 c 3.79669,0 7.4378,1.50821 10.12243,4.19284 2.68464,2.68463 4.19281,6.32578 4.19281,10.12241 l 0,57.25928 c 0,7.90609 -6.40911,14.31524 -14.31524,14.31524 l -608.8183,0 c -7.9061,0 -14.31525,-6.40915 -14.31525,-14.31524 z"
       id="path3555"
       inkscape:connector-curvature="0"
       style="stroke:#000000;stroke-width:4.48860788;stroke-linecap:butt;stroke-linejoin:round" />
    <path
       d="m 413.7689,296.77606 4.5,-0.4375 q 0.40625,2.26562 1.64062,3.32812 1.25,1.0625 3.35938,1.0625 2.23437,0 3.35937,-0.9375 1.14063,-0.95312 1.14063,-2.21875 0,-0.8125 -0.48438,-1.375 -0.46875,-0.57812 -1.65625,-1 -0.8125,-0.28125 -3.70312,-1 -3.71875,-0.92187 -5.21875,-2.26562 -2.10938,-1.89063 -2.10938,-4.60938 0,-1.75 0.98438,-3.26562 1,-1.53125 2.85937,-2.32813 1.875,-0.79687 4.51563,-0.79687 4.3125,0 6.48437,1.89062 2.1875,1.89063 2.29688,5.04688 l -4.625,0.20312 q -0.29688,-1.76562 -1.28125,-2.53125 -0.96875,-0.78125 -2.92188,-0.78125 -2.01562,0 -3.15625,0.82813 -0.73437,0.53125 -0.73437,1.42187 0,0.8125 0.6875,1.39063 0.875,0.73437 4.25,1.53125 3.375,0.79687 4.98437,1.65625 1.625,0.84375 2.53125,2.32812 0.92188,1.46875 0.92188,3.64063 0,1.96875 -1.09375,3.6875 -1.09375,1.71875 -3.09375,2.5625 -2,0.82812 -4.98438,0.82812 -4.34375,0 -6.67187,-2 -2.32813,-2.01562 -2.78125,-5.85937 z m 30.09375,-9.14063 0,3.5 -3,0 0,6.6875 q 0,2.03125 0.0781,2.375 0.0937,0.32813 0.39063,0.54688 0.3125,0.21875 0.75,0.21875 0.60937,0 1.76562,-0.42188 l 0.375,3.40625 q -1.53125,0.65625 -3.46875,0.65625 -1.1875,0 -2.14062,-0.39062 -0.95313,-0.40625 -1.40625,-1.03125 -0.4375,-0.64063 -0.60938,-1.71875 -0.14062,-0.76563 -0.14062,-3.09375 l 0,-7.23438 -2.01563,0 0,-3.5 2.01563,0 0,-3.29687 4.40625,-2.5625 0,5.85937 3,0 z m 7.25,16.59375 -4.39063,0 0,-16.59375 4.07813,0 0,2.35938 q 1.04687,-1.67188 1.875,-2.20313 0.84375,-0.53125 1.90625,-0.53125 1.5,0 2.89062,0.82813 l -1.35937,3.82812 q -1.10938,-0.71875 -2.0625,-0.71875 -0.92188,0 -1.5625,0.51563 -0.64063,0.5 -1.01563,1.82812 -0.35937,1.32813 -0.35937,5.5625 l 0,5.125 z m 11.53125,-11.53125 -3.98438,-0.71875 q 0.67188,-2.40625 2.3125,-3.5625 1.64063,-1.15625 4.875,-1.15625 2.9375,0 4.375,0.70313 1.4375,0.6875 2.01563,1.76562 0.59375,1.0625 0.59375,3.92188 l -0.0469,5.125 q 0,2.1875 0.20313,3.23437 0.21875,1.03125 0.79687,2.21875 l -4.34375,0 q -0.17187,-0.4375 -0.42187,-1.29687 -0.10938,-0.39063 -0.15625,-0.51563 -1.125,1.09375 -2.40625,1.64063 -1.28125,0.54687 -2.73438,0.54687 -2.5625,0 -4.04687,-1.39062 -1.46875,-1.39063 -1.46875,-3.51563 0,-1.40625 0.67187,-2.5 0.67188,-1.10937 1.875,-1.6875 1.21875,-0.59375 3.5,-1.03125 3.07813,-0.57812 4.26563,-1.07812 l 0,-0.4375 q 0,-1.26563 -0.625,-1.79688 -0.625,-0.54687 -2.35938,-0.54687 -1.17187,0 -1.82812,0.46875 -0.65625,0.45312 -1.0625,1.60937 z m 5.875,3.5625 q -0.84375,0.28125 -2.67188,0.67188 -1.82812,0.39062 -2.39062,0.76562 -0.85938,0.60938 -0.85938,1.54688 0,0.92187 0.6875,1.59375 0.6875,0.67187 1.75,0.67187 1.1875,0 2.26563,-0.78125 0.79687,-0.59375 1.04687,-1.45312 0.17188,-0.5625 0.17188,-2.14063 l 0,-0.875 z m 16.25,-8.625 0,3.5 -3,0 0,6.6875 q 0,2.03125 0.0781,2.375 0.0937,0.32813 0.39063,0.54688 0.3125,0.21875 0.75,0.21875 0.60937,0 1.76562,-0.42188 l 0.375,3.40625 q -1.53125,0.65625 -3.46875,0.65625 -1.1875,0 -2.14062,-0.39062 -0.95313,-0.40625 -1.40625,-1.03125 -0.4375,-0.64063 -0.60938,-1.71875 -0.14062,-0.76563 -0.14062,-3.09375 l 0,-7.23438 -2.01563,0 0,-3.5 2.01563,0 0,-3.29687 4.40625,-2.5625 0,5.85937 3,0 z m 2.03125,8.0625 q 0,-2.1875 1.07812,-4.23437 1.07813,-2.04688 3.04688,-3.125 1.98437,-1.07813 4.42187,-1.07813 3.76563,0 6.17188,2.45313 2.40625,2.4375 2.40625,6.17187 0,3.76563 -2.4375,6.25 -2.42188,2.46875 -6.10938,2.46875 -2.28125,0 -4.35937,-1.03125 -2.0625,-1.03125 -3.14063,-3.01562 -1.07812,-2 -1.07812,-4.85938 z m 4.5,0.23438 q 0,2.46875 1.17187,3.78125 1.17188,1.3125 2.89063,1.3125 1.71875,0 2.875,-1.3125 1.17187,-1.3125 1.17187,-3.8125 0,-2.4375 -1.17187,-3.75 -1.15625,-1.3125 -2.875,-1.3125 -1.71875,0 -2.89063,1.3125 -1.17187,1.3125 -1.17187,3.78125 z m 14.51562,3.5625 4.40625,-0.67188 q 0.28125,1.28125 1.14063,1.95313 0.85941,0.65625 2.40628,0.65625 1.70313,0 2.5625,-0.625 0.57813,-0.4375 0.57813,-1.17188 0,-0.5 -0.3125,-0.82812 -0.32813,-0.3125 -1.46875,-0.57813 -5.31253,-1.17187 -6.73441,-2.14062 -1.96875,-1.34375 -1.96875,-3.73438 0,-2.15625 1.70313,-3.625 1.70312,-1.46875 5.28128,-1.46875 3.40625,0 5.0625,1.10938 1.65625,1.10937 2.28125,3.28125 l -4.14063,0.76562 q -0.26562,-0.96875 -1.01562,-1.48437 -0.73438,-0.51563 -2.10938,-0.51563 -1.7344,0 -2.4844,0.48438 -0.5,0.34375 -0.5,0.89062 0,0.46875 0.4375,0.79688 0.59375,0.4375 4.09378,1.23437 3.51562,0.79688 4.90625,1.95313 1.375,1.17187 1.375,3.26562 0,2.28125 -1.90625,3.92188 -1.90625,1.64062 -5.64063,1.64062 -3.39065,0 -5.37503,-1.375 -1.96875,-1.375 -2.57812,-3.73437 z m 19.21878,-11.85938 4.09375,0 0,2.4375 q 0.79688,-1.25 2.15625,-2.03125 1.35938,-0.78125 3.01563,-0.78125 2.89062,0 4.90625,2.26563 2.01562,2.26562 2.01562,6.3125 0,4.15625 -2.03125,6.46875 -2.03125,2.29687 -4.92187,2.29687 -1.375,0 -2.5,-0.54687 -1.10938,-0.54688 -2.34375,-1.875 l 0,8.35937 -4.39063,0 0,-22.90625 z m 4.34375,8.01563 q 0,2.79687 1.10938,4.14062 1.10937,1.32813 2.70312,1.32813 1.53125,0 2.54688,-1.21875 1.01562,-1.23438 1.01562,-4.03125 0,-2.60938 -1.04687,-3.875 -1.04688,-1.26563 -2.59375,-1.26563 -1.60938,0 -2.67188,1.25 -1.0625,1.23438 -1.0625,3.67188 z m 19.70313,-14.32813 0,8.42188 q 2.125,-2.48438 5.07812,-2.48438 1.51563,0 2.73438,0.5625 1.21875,0.5625 1.82812,1.4375 0.625,0.875 0.84375,1.9375 0.23438,1.0625 0.23438,3.29688 l 0,9.73437 -4.39063,0 0,-8.76562 q 0,-2.60938 -0.25,-3.3125 -0.25,-0.70313 -0.89062,-1.10938 -0.625,-0.42187 -1.57813,-0.42187 -1.09375,0 -1.95312,0.53125 -0.85938,0.53125 -1.26563,1.60937 -0.39062,1.0625 -0.39062,3.15625 l 0,8.3125 -4.39063,0 0,-22.90625 4.39063,0 z m 24.78125,17.625 4.375,0.73438 q -0.84375,2.40625 -2.67188,3.67187 -1.8125,1.25 -4.54687,1.25 -4.32813,0 -6.40625,-2.82812 -1.64063,-2.26563 -1.64063,-5.71875 0,-4.125 2.15625,-6.45313 2.15625,-2.34375 5.45313,-2.34375 3.70312,0 5.84375,2.45313 2.14062,2.4375 2.04687,7.48437 l -11,0 q 0.0469,1.95313 1.0625,3.04688 1.01563,1.07812 2.53125,1.07812 1.03125,0 1.73438,-0.5625 0.70312,-0.5625 1.0625,-1.8125 z m 0.25,-4.4375 q -0.0469,-1.90625 -0.98438,-2.89062 -0.9375,-1 -2.28125,-1 -1.4375,0 -2.375,1.04687 -0.9375,1.04688 -0.92187,2.84375 l 6.5625,0 z m 12.14062,9.71875 -4.39062,0 0,-16.59375 4.07812,0 0,2.35938 q 1.04688,-1.67188 1.875,-2.20313 0.84375,-0.53125 1.90625,-0.53125 1.5,0 2.89063,0.82813 l -1.35938,3.82812 q -1.10937,-0.71875 -2.0625,-0.71875 -0.92187,0 -1.5625,0.51563 -0.64062,0.5 -1.01562,1.82812 -0.35938,1.32813 -0.35938,5.5625 l 0,5.125 z m 17.85938,-5.28125 4.375,0.73438 q -0.84375,2.40625 -2.67188,3.67187 -1.8125,1.25 -4.54687,1.25 -4.32813,0 -6.40625,-2.82812 -1.64063,-2.26563 -1.64063,-5.71875 0,-4.125 2.15625,-6.45313 2.15625,-2.34375 5.45313,-2.34375 3.70312,0 5.84375,2.45313 2.14062,2.4375 2.04687,7.48437 l -11,0 q 0.0469,1.95313 1.0625,3.04688 1.01563,1.07812 2.53125,1.07812 1.03125,0 1.73438,-0.5625 0.70312,-0.5625 1.0625,-1.8125 z m 0.25,-4.4375 q -0.0469,-1.90625 -0.98438,-2.89062 -0.9375,-1 -2.28125,-1 -1.4375,0 -2.375,1.04687 -0.9375,1.04688 -0.92187,2.84375 l 6.5625,0 z m 16.875,9.71875 0,-22.90625 9.73437,0 q 3.67188,0 5.32813,0.625 1.67187,0.60938 2.67187,2.1875 1,1.57813 1,3.60938 0,2.57812 -1.51562,4.26562 -1.51563,1.67188 -4.53125,2.10938 1.5,0.875 2.46875,1.92187 0.98437,1.04688 2.64062,3.71875 l 2.79688,4.46875 -5.53125,0 -3.34375,-4.98437 q -1.78125,-2.67188 -2.4375,-3.35938 -0.65625,-0.70312 -1.39063,-0.95312 -0.73437,-0.26563 -2.32812,-0.26563 l -0.9375,0 0,9.5625 -4.625,0 z m 4.625,-13.21875 3.42187,0 q 3.32813,0 4.15625,-0.28125 0.82813,-0.28125 1.29688,-0.96875 0.46875,-0.6875 0.46875,-1.71875 0,-1.15625 -0.625,-1.85937 -0.60938,-0.71875 -1.73438,-0.90625 -0.5625,-0.0781 -3.375,-0.0781 l -3.60937,0 0,5.8125 z m 29.35937,13.21875 0,-2.48437 q -0.90625,1.32812 -2.39062,2.09375 -1.46875,0.76562 -3.10938,0.76562 -1.67187,0 -3,-0.73437 -1.32812,-0.73438 -1.92187,-2.0625 -0.59375,-1.32813 -0.59375,-3.67188 l 0,-10.5 4.39062,0 0,7.625 q 0,3.5 0.23438,4.29688 0.25,0.78125 0.89062,1.25 0.64063,0.45312 1.625,0.45312 1.125,0 2.01563,-0.60937 0.89062,-0.625 1.21875,-1.53125 0.32812,-0.92188 0.32812,-4.48438 l 0,-7 4.39063,0 0,16.59375 -4.07813,0 z m 23.71875,0 -4.39062,0 0,-8.46875 q 0,-2.6875 -0.28125,-3.46875 -0.28125,-0.79687 -0.92188,-1.23437 -0.625,-0.4375 -1.51562,-0.4375 -1.14063,0 -2.04688,0.625 -0.90625,0.625 -1.25,1.65625 -0.32812,1.03125 -0.32812,3.8125 l 0,7.51562 -4.39063,0 0,-16.59375 4.07813,0 0,2.4375 q 2.17187,-2.8125 5.46875,-2.8125 1.45312,0 2.65625,0.53125 1.20312,0.51563 1.8125,1.32813 0.625,0.8125 0.85937,1.84375 0.25,1.03125 0.25,2.95312 l 0,10.3125 z m 12.0625,-16.59375 0,3.5 -3,0 0,6.6875 q 0,2.03125 0.0781,2.375 0.0937,0.32813 0.39062,0.54688 0.3125,0.21875 0.75,0.21875 0.60938,0 1.76563,-0.42188 l 0.375,3.40625 q -1.53125,0.65625 -3.46875,0.65625 -1.1875,0 -2.14063,-0.39062 -0.95312,-0.40625 -1.40625,-1.03125 -0.4375,-0.64063 -0.60937,-1.71875 -0.14063,-0.76563 -0.14063,-3.09375 l 0,-7.23438 -2.01562,0 0,-3.5 2.01562,0 0,-3.29687 4.40625,-2.5625 0,5.85937 3,0 z m 3.04688,-2.25 0,-4.0625 4.39062,0 0,4.0625 -4.39062,0 z m 0,18.84375 0,-16.59375 4.39062,0 0,16.59375 -4.39062,0 z m 8.5625,-16.59375 4.04687,0 0,2.26563 q 2.17188,-2.64063 5.17188,-2.64063 1.59375,0 2.76562,0.65625 1.17188,0.65625 1.92188,1.98438 1.09375,-1.32813 2.35937,-1.98438 1.26563,-0.65625 2.70313,-0.65625 1.82812,0 3.09375,0.75 1.26562,0.73438 1.89062,2.17188 0.45313,1.0625 0.45313,3.4375 l 0,10.60937 -4.39063,0 0,-9.48437 q 0,-2.46875 -0.45312,-3.1875 -0.60938,-0.9375 -1.875,-0.9375 -0.92188,0 -1.73438,0.5625 -0.8125,0.5625 -1.17187,1.65625 -0.35938,1.07812 -0.35938,3.42187 l 0,7.96875 -4.39062,0 0,-9.09375 q 0,-2.42187 -0.23438,-3.125 -0.23437,-0.70312 -0.73437,-1.04687 -0.48438,-0.34375 -1.32813,-0.34375 -1.01562,0 -1.82812,0.54687 -0.8125,0.54688 -1.17188,1.57813 -0.34375,1.03125 -0.34375,3.42187 l 0,8.0625 -4.39062,0 0,-16.59375 z m 38.39062,11.3125 4.375,0.73438 q -0.84375,2.40625 -2.67187,3.67187 -1.8125,1.25 -4.54688,1.25 -4.32812,0 -6.40625,-2.82812 -1.64062,-2.26563 -1.64062,-5.71875 0,-4.125 2.15625,-6.45313 2.15625,-2.34375 5.45312,-2.34375 3.70313,0 5.84375,2.45313 2.14063,2.4375 2.04688,7.48437 l -11,0 q 0.0469,1.95313 1.0625,3.04688 1.01562,1.07812 2.53125,1.07812 1.03125,0 1.73437,-0.5625 0.70313,-0.5625 1.0625,-1.8125 z m 0.25,-4.4375 q -0.0469,-1.90625 -0.98437,-2.89062 -0.9375,-1 -2.28125,-1 -1.4375,0 -2.375,1.04687 -0.9375,1.04688 -0.92188,2.84375 l 6.5625,0 z"
       id="path3557"
       inkscape:connector-curvature="0"
       style="fill:#000000;fill-rule:nonzero" />
    <path
       d="m 261.02887,163.00029 0,0 c 0,-7.9061 6.40915,-14.31525 14.31525,-14.31525 l 608.8183,0 c 3.79669,0 7.4378,1.50821 10.12243,4.19284 2.68464,2.68463 4.19281,6.32576 4.19281,10.12241 l 0,57.25926 c 0,7.9061 -6.40911,14.31525 -14.31524,14.31525 l -608.8183,0 c -7.9061,0 -14.31525,-6.40915 -14.31525,-14.31525 z"
       id="path3559"
       inkscape:connector-curvature="0"
       style="fill:#4ba8f3;fill-opacity:0.6;fill-rule:nonzero" />
    <path
       d="m 261.02887,163.00029 0,0 c 0,-7.9061 6.40915,-14.31525 14.31525,-14.31525 l 608.8183,0 c 3.79669,0 7.4378,1.50821 10.12243,4.19284 2.68464,2.68463 4.19281,6.32576 4.19281,10.12241 l 0,57.25926 c 0,7.9061 -6.40911,14.31525 -14.31524,14.31525 l -608.8183,0 c -7.9061,0 -14.31525,-6.40915 -14.31525,-14.31525 z"
       id="path3561"
       inkscape:connector-curvature="0"
       style="stroke:#000000;stroke-width:4.48860788;stroke-linecap:butt;stroke-linejoin:round" />
    <path
       d="m 403.97983,195.89679 4.5,-0.4375 q 0.40625,2.26562 1.64062,3.32812 1.25,1.0625 3.35938,1.0625 2.23437,0 3.35937,-0.9375 1.14063,-0.95312 1.14063,-2.21875 0,-0.8125 -0.48438,-1.375 -0.46875,-0.57812 -1.65625,-1 -0.8125,-0.28125 -3.70312,-1 -3.71875,-0.92187 -5.21875,-2.26562 -2.10938,-1.89063 -2.10938,-4.60938 0,-1.75 0.98438,-3.26562 1,-1.53125 2.85937,-2.32813 1.875,-0.79687 4.51563,-0.79687 4.3125,0 6.48437,1.89062 2.1875,1.89063 2.29688,5.04688 l -4.625,0.20312 q -0.29688,-1.76562 -1.28125,-2.53125 -0.96875,-0.78125 -2.92188,-0.78125 -2.01562,0 -3.15625,0.82813 -0.73437,0.53125 -0.73437,1.42187 0,0.8125 0.6875,1.39063 0.875,0.73437 4.25,1.53125 3.375,0.79687 4.98437,1.65625 1.625,0.84375 2.53125,2.32812 0.92188,1.46875 0.92188,3.64063 0,1.96875 -1.09375,3.6875 -1.09375,1.71875 -3.09375,2.5625 -2,0.82812 -4.98438,0.82812 -4.34375,0 -6.67187,-2 -2.32813,-2.01562 -2.78125,-5.85937 z m 30.09375,-9.14063 0,3.5 -3,0 0,6.6875 q 0,2.03125 0.0781,2.375 0.0937,0.32813 0.39063,0.54688 0.3125,0.21875 0.75,0.21875 0.60937,0 1.76562,-0.42188 l 0.375,3.40625 q -1.53125,0.65625 -3.46875,0.65625 -1.1875,0 -2.14062,-0.39062 -0.95313,-0.40625 -1.40625,-1.03125 -0.4375,-0.64063 -0.60938,-1.71875 -0.14062,-0.76563 -0.14062,-3.09375 l 0,-7.23438 -2.01563,0 0,-3.5 2.01563,0 0,-3.29687 4.40625,-2.5625 0,5.85937 3,0 z m 7.25,16.59375 -4.39063,0 0,-16.59375 4.07813,0 0,2.35938 q 1.04687,-1.67188 1.875,-2.20313 0.84375,-0.53125 1.90625,-0.53125 1.5,0 2.89062,0.82813 l -1.35937,3.82812 q -1.10938,-0.71875 -2.0625,-0.71875 -0.92188,0 -1.5625,0.51563 -0.64063,0.5 -1.01563,1.82812 -0.35937,1.32813 -0.35937,5.5625 l 0,5.125 z m 11.53125,-11.53125 -3.98438,-0.71875 q 0.67188,-2.40625 2.3125,-3.5625 1.64063,-1.15625 4.875,-1.15625 2.9375,0 4.375,0.70313 1.4375,0.6875 2.01563,1.76562 0.59375,1.0625 0.59375,3.92188 l -0.0469,5.125 q 0,2.1875 0.20313,3.23437 0.21875,1.03125 0.79687,2.21875 l -4.34375,0 q -0.17187,-0.4375 -0.42187,-1.29687 -0.10938,-0.39063 -0.15625,-0.51563 -1.125,1.09375 -2.40625,1.64063 -1.28125,0.54687 -2.73438,0.54687 -2.5625,0 -4.04687,-1.39062 -1.46875,-1.39063 -1.46875,-3.51563 0,-1.40625 0.67187,-2.5 0.67188,-1.10937 1.875,-1.6875 1.21875,-0.59375 3.5,-1.03125 3.07813,-0.57812 4.26563,-1.07812 l 0,-0.4375 q 0,-1.26563 -0.625,-1.79688 -0.625,-0.54687 -2.35938,-0.54687 -1.17187,0 -1.82812,0.46875 -0.65625,0.45312 -1.0625,1.60937 z m 5.875,3.5625 q -0.84375,0.28125 -2.67188,0.67188 -1.82812,0.39062 -2.39062,0.76562 -0.85938,0.60938 -0.85938,1.54688 0,0.92187 0.6875,1.59375 0.6875,0.67187 1.75,0.67187 1.1875,0 2.26563,-0.78125 0.79687,-0.59375 1.04687,-1.45312 0.17188,-0.5625 0.17188,-2.14063 l 0,-0.875 z m 16.25,-8.625 0,3.5 -3,0 0,6.6875 q 0,2.03125 0.0781,2.375 0.0937,0.32813 0.39063,0.54688 0.3125,0.21875 0.75,0.21875 0.60937,0 1.76562,-0.42188 l 0.375,3.40625 q -1.53125,0.65625 -3.46875,0.65625 -1.1875,0 -2.14062,-0.39062 -0.95313,-0.40625 -1.40625,-1.03125 -0.4375,-0.64063 -0.60938,-1.71875 -0.14062,-0.76563 -0.14062,-3.09375 l 0,-7.23438 -2.01563,0 0,-3.5 2.01563,0 0,-3.29687 4.40625,-2.5625 0,5.85937 3,0 z m 2.03125,8.0625 q 0,-2.1875 1.07812,-4.23437 1.07813,-2.04688 3.04688,-3.125 1.98437,-1.07813 4.42187,-1.07813 3.76563,0 6.17188,2.45313 2.40625,2.4375 2.40625,6.17187 0,3.76563 -2.4375,6.25 -2.42188,2.46875 -6.10938,2.46875 -2.28125,0 -4.35937,-1.03125 -2.0625,-1.03125 -3.14063,-3.01562 -1.07812,-2 -1.07812,-4.85938 z m 4.5,0.23438 q 0,2.46875 1.17187,3.78125 1.17188,1.3125 2.89063,1.3125 1.71875,0 2.875,-1.3125 1.17187,-1.3125 1.17187,-3.8125 0,-2.4375 -1.17187,-3.75 -1.15625,-1.3125 -2.875,-1.3125 -1.71875,0 -2.89063,1.3125 -1.17187,1.3125 -1.17187,3.78125 z m 14.51562,3.5625 4.40625,-0.67188 q 0.28125,1.28125 1.14063,1.95313 0.85937,0.65625 2.40625,0.65625 1.70312,0 2.5625,-0.625 0.57812,-0.4375 0.57812,-1.17188 0,-0.5 -0.3125,-0.82812 -0.32812,-0.3125 -1.46875,-0.57813 -5.3125,-1.17187 -6.73437,-2.14062 -1.96875,-1.34375 -1.96875,-3.73438 0,-2.15625 1.70312,-3.625 1.70313,-1.46875 5.28125,-1.46875 3.40625,0 5.0625,1.10938 1.65625,1.10937 2.28125,3.28125 l -4.14062,0.76562 q -0.26563,-0.96875 -1.01563,-1.48437 -0.73437,-0.51563 -2.10937,-0.51563 -1.73438,0 -2.48438,0.48438 -0.5,0.34375 -0.5,0.89062 0,0.46875 0.4375,0.79688 0.59375,0.4375 4.09375,1.23437 3.51563,0.79688 4.90625,1.95313 1.375,1.17187 1.375,3.26562 0,2.28125 -1.90625,3.92188 -1.90625,1.64062 -5.64062,1.64062 -3.39063,0 -5.375,-1.375 -1.96875,-1.375 -2.57813,-3.73437 z m 19.21879,-11.85938 4.09375,0 0,2.4375 q 0.79687,-1.25 2.15625,-2.03125 1.35937,-0.78125 3.01562,-0.78125 2.89063,0 4.90625,2.26563 2.01563,2.26562 2.01563,6.3125 0,4.15625 -2.03125,6.46875 -2.03125,2.29687 -4.92188,2.29687 -1.375,0 -2.5,-0.54687 -1.10937,-0.54688 -2.34375,-1.875 l 0,8.35937 -4.39062,0 0,-22.90625 z m 4.34375,8.01563 q 0,2.79687 1.10937,4.14062 1.10938,1.32813 2.70313,1.32813 1.53125,0 2.54687,-1.21875 1.01563,-1.23438 1.01563,-4.03125 0,-2.60938 -1.04688,-3.875 -1.04687,-1.26563 -2.59375,-1.26563 -1.60937,0 -2.67187,1.25 -1.0625,1.23438 -1.0625,3.67188 z m 19.70312,-14.32813 0,8.42188 q 2.125,-2.48438 5.07813,-2.48438 1.51562,0 2.73437,0.5625 1.21875,0.5625 1.82813,1.4375 0.625,0.875 0.84375,1.9375 0.23437,1.0625 0.23437,3.29688 l 0,9.73437 -4.39062,0 0,-8.76562 q 0,-2.60938 -0.25,-3.3125 -0.25,-0.70313 -0.89063,-1.10938 -0.625,-0.42187 -1.57812,-0.42187 -1.09375,0 -1.95313,0.53125 -0.85937,0.53125 -1.26562,1.60937 -0.39063,1.0625 -0.39063,3.15625 l 0,8.3125 -4.39062,0 0,-22.90625 4.39062,0 z m 24.78125,17.625 4.375,0.73438 q -0.84375,2.40625 -2.67187,3.67187 -1.8125,1.25 -4.54688,1.25 -4.32812,0 -6.40625,-2.82812 -1.64062,-2.26563 -1.64062,-5.71875 0,-4.125 2.15625,-6.45313 2.15625,-2.34375 5.45312,-2.34375 3.70313,0 5.84375,2.45313 2.14063,2.4375 2.04688,7.48437 l -11,0 q 0.0469,1.95313 1.0625,3.04688 1.01562,1.07812 2.53125,1.07812 1.03125,0 1.73437,-0.5625 0.70313,-0.5625 1.0625,-1.8125 z m 0.25,-4.4375 q -0.0469,-1.90625 -0.98437,-2.89062 -0.9375,-1 -2.28125,-1 -1.4375,0 -2.375,1.04687 -0.9375,1.04688 -0.92188,2.84375 l 6.5625,0 z m 12.14063,9.71875 -4.39063,0 0,-16.59375 4.07813,0 0,2.35938 q 1.04687,-1.67188 1.875,-2.20313 0.84375,-0.53125 1.90625,-0.53125 1.5,0 2.89062,0.82813 l -1.35937,3.82812 q -1.10938,-0.71875 -2.0625,-0.71875 -0.92188,0 -1.5625,0.51563 -0.64063,0.5 -1.01563,1.82812 -0.35937,1.32813 -0.35937,5.5625 l 0,5.125 z m 17.85937,-5.28125 4.375,0.73438 q -0.84375,2.40625 -2.67187,3.67187 -1.8125,1.25 -4.54688,1.25 -4.32812,0 -6.40625,-2.82812 -1.64062,-2.26563 -1.64062,-5.71875 0,-4.125 2.15625,-6.45313 2.15625,-2.34375 5.45312,-2.34375 3.70313,0 5.84375,2.45313 2.14063,2.4375 2.04688,7.48437 l -11,0 q 0.0469,1.95313 1.0625,3.04688 1.01562,1.07812 2.53125,1.07812 1.03125,0 1.73437,-0.5625 0.70313,-0.5625 1.0625,-1.8125 z m 0.25,-4.4375 q -0.0469,-1.90625 -0.98437,-2.89062 -0.9375,-1 -2.28125,-1 -1.4375,0 -2.375,1.04687 -0.9375,1.04688 -0.92188,2.84375 l 6.5625,0 z m 15.92188,-1.59375 q 0,-3.5 1.04687,-5.875 0.78125,-1.75 2.125,-3.14062 1.35938,-1.39063 2.96875,-2.0625 2.14063,-0.90625 4.9375,-0.90625 5.0625,0 8.09375,3.14062 3.04688,3.14063 3.04688,8.73438 0,5.54687 -3.01563,8.6875 -3.01562,3.125 -8.0625,3.125 -5.10937,0 -8.125,-3.10938 -3.01562,-3.125 -3.01562,-8.59375 z m 4.76562,-0.15625 q 0,3.89063 1.79688,5.90625 1.79687,2 4.5625,2 2.76562,0 4.53125,-1.98437 1.78125,-2 1.78125,-5.98438 0,-3.9375 -1.73438,-5.875 -1.71875,-1.9375 -4.57812,-1.9375 -2.85938,0 -4.60938,1.96875 -1.75,1.95313 -1.75,5.90625 z m 20.90625,-5.125 4.09375,0 0,2.4375 q 0.79688,-1.25 2.15625,-2.03125 1.35938,-0.78125 3.01563,-0.78125 2.89062,0 4.90625,2.26563 2.01562,2.26562 2.01562,6.3125 0,4.15625 -2.03125,6.46875 -2.03125,2.29687 -4.92187,2.29687 -1.375,0 -2.5,-0.54687 -1.10938,-0.54688 -2.34375,-1.875 l 0,8.35937 -4.39063,0 0,-22.90625 z m 4.34375,8.01563 q 0,2.79687 1.10938,4.14062 1.10937,1.32813 2.70312,1.32813 1.53125,0 2.54688,-1.21875 1.01562,-1.23438 1.01562,-4.03125 0,-2.60938 -1.04687,-3.875 -1.04688,-1.26563 -2.59375,-1.26563 -1.60938,0 -2.67188,1.25 -1.0625,1.23438 -1.0625,3.67188 z m 22.9375,-8.01563 0,3.5 -3,0 0,6.6875 q 0,2.03125 0.0781,2.375 0.0937,0.32813 0.39062,0.54688 0.3125,0.21875 0.75,0.21875 0.60938,0 1.76563,-0.42188 l 0.375,3.40625 q -1.53125,0.65625 -3.46875,0.65625 -1.1875,0 -2.14063,-0.39062 -0.95312,-0.40625 -1.40625,-1.03125 -0.4375,-0.64063 -0.60937,-1.71875 -0.14063,-0.76563 -0.14063,-3.09375 l 0,-7.23438 -2.01562,0 0,-3.5 2.01562,0 0,-3.29687 4.40625,-2.5625 0,5.85937 3,0 z m 3.04688,-2.25 0,-4.0625 4.39062,0 0,4.0625 -4.39062,0 z m 0,18.84375 0,-16.59375 4.39062,0 0,16.59375 -4.39062,0 z m 8.5625,-16.59375 4.04687,0 0,2.26563 q 2.17188,-2.64063 5.17188,-2.64063 1.59375,0 2.76562,0.65625 1.17188,0.65625 1.92188,1.98438 1.09375,-1.32813 2.35937,-1.98438 1.26563,-0.65625 2.70313,-0.65625 1.82812,0 3.09375,0.75 1.26562,0.73438 1.89062,2.17188 0.45313,1.0625 0.45313,3.4375 l 0,10.60937 -4.39063,0 0,-9.48437 q 0,-2.46875 -0.45312,-3.1875 -0.60938,-0.9375 -1.875,-0.9375 -0.92188,0 -1.73438,0.5625 -0.8125,0.5625 -1.17187,1.65625 -0.35938,1.07812 -0.35938,3.42187 l 0,7.96875 -4.39062,0 0,-9.09375 q 0,-2.42187 -0.23438,-3.125 -0.23437,-0.70312 -0.73437,-1.04687 -0.48438,-0.34375 -1.32813,-0.34375 -1.01562,0 -1.82812,0.54687 -0.8125,0.54688 -1.17188,1.57813 -0.34375,1.03125 -0.34375,3.42187 l 0,8.0625 -4.39062,0 0,-16.59375 z m 28.78125,-2.25 0,-4.0625 4.39062,0 0,4.0625 -4.39062,0 z m 0,18.84375 0,-16.59375 4.39062,0 0,16.59375 -4.39062,0 z m 7.125,0 0,-3.42187 6.21875,-7.14063 q 1.53125,-1.75 2.26562,-2.48437 -0.76562,0.0469 -2.01562,0.0625 l -5.85938,0.0312 0,-3.64063 13.71875,0 0,3.10938 -6.34375,7.3125 -2.23437,2.42187 q 1.82812,-0.10937 2.26562,-0.10937 l 6.79688,0 0,3.85937 -14.8125,0 z m 27.375,-5.28125 4.375,0.73438 q -0.84375,2.40625 -2.67188,3.67187 -1.8125,1.25 -4.54687,1.25 -4.32813,0 -6.40625,-2.82812 -1.64063,-2.26563 -1.64063,-5.71875 0,-4.125 2.15625,-6.45313 2.15625,-2.34375 5.45313,-2.34375 3.70312,0 5.84375,2.45313 2.14062,2.4375 2.04687,7.48437 l -11,0 q 0.0469,1.95313 1.0625,3.04688 1.01563,1.07812 2.53125,1.07812 1.03125,0 1.73438,-0.5625 0.70312,-0.5625 1.0625,-1.8125 z m 0.25,-4.4375 q -0.0469,-1.90625 -0.98438,-2.89062 -0.9375,-1 -2.28125,-1 -1.4375,0 -2.375,1.04687 -0.9375,1.04688 -0.92187,2.84375 l 6.5625,0 z m 12.14062,9.71875 -4.39062,0 0,-16.59375 4.07812,0 0,2.35938 q 1.04688,-1.67188 1.875,-2.20313 0.84375,-0.53125 1.90625,-0.53125 1.5,0 2.89063,0.82813 l -1.35938,3.82812 q -1.10937,-0.71875 -2.0625,-0.71875 -0.92187,0 -1.5625,0.51563 -0.64062,0.5 -1.01562,1.82812 -0.35938,1.32813 -0.35938,5.5625 l 0,5.125 z"
       id="path3563"
       inkscape:connector-curvature="0"
       style="fill:#000000;fill-rule:nonzero" />
    <path
       d="m 261.02887,41.43869 0,0 c 0,-10.190655 8.26117,-18.451813 18.45181,-18.451813 l 94.18298,0 c 4.89374,0 9.58704,1.944023 13.0474,5.404409 3.46039,3.460387 5.40442,8.153677 5.40442,13.047403 l 0,73.805041 c 0,10.19065 -8.26114,18.45181 -18.45182,18.45181 l -94.18298,0 c -10.19064,0 -18.45181,-8.26116 -18.45181,-18.45181 z"
       id="path3565"
       inkscape:connector-curvature="0"
       style="fill:#e0e4cc;fill-rule:nonzero" />
    <path
       d="m 261.02887,41.43869 0,0 c 0,-10.190655 8.26117,-18.451813 18.45181,-18.451813 l 94.18298,0 c 4.89374,0 9.58704,1.944023 13.0474,5.404409 3.46039,3.460387 5.40442,8.153677 5.40442,13.047403 l 0,73.805041 c 0,10.19065 -8.26114,18.45181 -18.45182,18.45181 l -94.18298,0 c -10.19064,0 -18.45181,-8.26116 -18.45181,-18.45181 z"
       id="path3567"
       inkscape:connector-curvature="0"
       style="stroke:#000000;stroke-width:4.48860788;stroke-linecap:butt;stroke-linejoin:round" />
    <path
       d="m 305.8598,52.613083 3.89062,0 0,12.234375 q 0,2.40625 -0.42187,3.6875 -0.5625,1.6875 -2.0625,2.71875 -1.48438,1.015625 -3.92188,1.015625 -2.85937,0 -4.40625,-1.59375 -1.54687,-1.609375 -1.54687,-4.703125 l 3.67187,-0.421875 q 0.0625,1.65625 0.48438,2.34375 0.64062,1.046875 1.92187,1.046875 1.3125,0 1.84375,-0.75 0.54688,-0.75 0.54688,-3.09375 l 0,-12.484375 z m 10.59058,9.59375 -3.35938,-0.609375 q 0.5625,-2.015625 1.95313,-2.984375 1.39062,-0.984375 4.10937,-0.984375 2.48438,0 3.6875,0.59375 1.21875,0.578125 1.70313,1.484375 0.5,0.890625 0.5,3.3125 l -0.0312,4.328125 q 0,1.84375 0.17187,2.71875 0.1875,0.875 0.67188,1.875 l -3.67188,0 q -0.14062,-0.375 -0.35937,-1.09375 -0.0781,-0.328125 -0.125,-0.4375 -0.95313,0.921875 -2.03125,1.390625 -1.07813,0.453125 -2.3125,0.453125 -2.15625,0 -3.40625,-1.171875 -1.23438,-1.171875 -1.23438,-2.96875 0,-1.1875 0.5625,-2.109375 0.5625,-0.9375 1.57813,-1.421875 1.03125,-0.5 2.95312,-0.875 2.59375,-0.484375 3.59375,-0.90625 l 0,-0.359375 q 0,-1.078125 -0.53125,-1.53125 -0.51562,-0.453125 -1.98437,-0.453125 -0.98438,0 -1.54688,0.390625 -0.54687,0.390625 -0.89062,1.359375 z m 4.95312,3.015625 q -0.70312,0.234375 -2.25,0.5625 -1.54687,0.328125 -2.01562,0.640625 -0.71875,0.515625 -0.71875,1.3125 0,0.78125 0.57812,1.34375 0.57813,0.5625 1.46875,0.5625 1,0 1.92188,-0.65625 0.67187,-0.5 0.875,-1.21875 0.14062,-0.484375 0.14062,-1.8125 l 0,-0.734375 z m 10.94992,6.71875 -5.64062,-14 3.89062,0 2.64063,7.140625 0.76562,2.390625 q 0.29688,-0.90625 0.375,-1.203125 0.1875,-0.59375 0.40625,-1.1875 l 2.65625,-7.140625 3.8125,0 -5.5625,14 -3.34375,0 z m 13.74683,-9.734375 -3.35938,-0.609375 q 0.5625,-2.015625 1.95313,-2.984375 1.39062,-0.984375 4.10937,-0.984375 2.48438,0 3.6875,0.59375 1.21875,0.578125 1.70313,1.484375 0.5,0.890625 0.5,3.3125 l -0.0312,4.328125 q 0,1.84375 0.17187,2.71875 0.1875,0.875 0.67188,1.875 l -3.67188,0 q -0.14062,-0.375 -0.35937,-1.09375 -0.0781,-0.328125 -0.125,-0.4375 -0.95313,0.921875 -2.03125,1.390625 -1.07813,0.453125 -2.3125,0.453125 -2.15625,0 -3.40625,-1.171875 -1.23438,-1.171875 -1.23438,-2.96875 0,-1.1875 0.5625,-2.109375 0.5625,-0.9375 1.57813,-1.421875 1.03125,-0.5 2.95312,-0.875 2.59375,-0.484375 3.59375,-0.90625 l 0,-0.359375 q 0,-1.078125 -0.53125,-1.53125 -0.51562,-0.453125 -1.98437,-0.453125 -0.98438,0 -1.54688,0.390625 -0.54687,0.390625 -0.89062,1.359375 z m 4.95312,3.015625 q -0.70312,0.234375 -2.25,0.5625 -1.54687,0.328125 -2.01562,0.640625 -0.71875,0.515625 -0.71875,1.3125 0,0.78125 0.57812,1.34375 0.57813,0.5625 1.46875,0.5625 1,0 1.92188,-0.65625 0.67187,-0.5 0.875,-1.21875 0.14062,-0.484375 0.14062,-1.8125 l 0,-0.734375 z"
       id="path3569"
       inkscape:connector-curvature="0"
       style="fill:#000000;fill-rule:nonzero" />
    <path
       d="m 323.74493,103.94121 -4.25,0 -1.6875,-4.390625 -7.71875,0 -1.59375,4.390625 -4.14063,0 7.53125,-19.328125 4.125,0 7.73438,19.328125 z m -7.1875,-7.640625 -2.65625,-7.171875 -2.60938,7.171875 5.26563,0 z m 9.0159,7.640625 0,-19.328125 6.26562,0 q 3.54688,0 4.64063,0.296875 1.65625,0.421875 2.76562,1.890625 1.125,1.453125 1.125,3.765625 0,1.765625 -0.64062,2.984375 -0.64063,1.21875 -1.64063,1.90625 -1,0.6875 -2.03125,0.921875 -1.39062,0.265625 -4.04687,0.265625 l -2.54688,0 0,7.296875 -3.89062,0 z m 3.89062,-16.0625 0,5.484375 2.14063,0 q 2.3125,0 3.07812,-0.296875 0.78125,-0.3125 1.21875,-0.953125 0.45313,-0.640625 0.45313,-1.5 0,-1.0625 -0.625,-1.734375 -0.60938,-0.6875 -1.5625,-0.859375 -0.70313,-0.140625 -2.8125,-0.140625 l -1.89063,0 z m 13.76389,16.0625 0,-19.328125 3.90625,0 0,19.328125 -3.90625,0 z"
       id="path3571"
       inkscape:connector-curvature="0"
       style="fill:#000000;fill-rule:nonzero" />
    <path
       d="m 403.95538,41.43869 0,0 c 0,-10.190655 8.26117,-18.451813 18.45181,-18.451813 l 94.18302,0 c 4.89367,0 9.58697,1.944023 13.04736,5.404409 3.46039,3.460387 5.40442,8.153677 5.40442,13.047403 l 0,73.805041 c 0,10.19065 -8.26117,18.45181 -18.45178,18.45181 l -94.18302,0 c -10.19064,0 -18.45181,-8.26116 -18.45181,-18.45181 z"
       id="path3573"
       inkscape:connector-curvature="0"
       style="fill:#f3de4a;fill-rule:nonzero" />
    <path
       d="m 403.95538,41.43869 0,0 c 0,-10.190655 8.26117,-18.451813 18.45181,-18.451813 l 94.18302,0 c 4.89367,0 9.58697,1.944023 13.04736,5.404409 3.46039,3.460387 5.40442,8.153677 5.40442,13.047403 l 0,73.805041 c 0,10.19065 -8.26117,18.45181 -18.45178,18.45181 l -94.18302,0 c -10.19064,0 -18.45181,-8.26116 -18.45181,-18.45181 z"
       id="path3575"
       inkscape:connector-curvature="0"
       style="stroke:#000000;stroke-width:4.48860788;stroke-linecap:butt;stroke-linejoin:round" />
    <path
       d="m 435.6373,65.65996 3.79687,-0.375 q 0.34375,1.90625 1.39063,2.8125 1.0625,0.890625 2.82812,0.890625 1.89063,0 2.84375,-0.796875 0.95313,-0.796875 0.95313,-1.859375 0,-0.6875 -0.40625,-1.171875 -0.39063,-0.484375 -1.39063,-0.84375 -0.6875,-0.234375 -3.125,-0.84375 -3.14062,-0.765625 -4.40625,-1.90625 -1.78125,-1.59375 -1.78125,-3.890625 0,-1.46875 0.82813,-2.75 0.84375,-1.296875 2.42187,-1.96875 1.57813,-0.671875 3.8125,-0.671875 3.625,0 5.46875,1.59375 1.84375,1.59375 1.9375,4.265625 l -3.90625,0.171875 q -0.25,-1.5 -1.07812,-2.140625 -0.8125,-0.65625 -2.46875,-0.65625 -1.70313,0 -2.65625,0.6875 -0.625,0.453125 -0.625,1.203125 0,0.6875 0.57812,1.171875 0.73438,0.625 3.57813,1.296875 2.85937,0.671875 4.21875,1.390625 1.35937,0.71875 2.125,1.96875 0.78125,1.234375 0.78125,3.078125 0,1.65625 -0.92188,3.109375 -0.92187,1.453125 -2.60937,2.15625 -1.6875,0.703125 -4.20313,0.703125 -3.67187,0 -5.64062,-1.6875 -1.95313,-1.703125 -2.34375,-4.9375 z m 30.95138,-3.578125 -3.64062,0.65625 q -0.1875,-1.09375 -0.84375,-1.640625 -0.65625,-0.5625 -1.6875,-0.5625 -1.39063,0 -2.21875,0.953125 -0.8125,0.953125 -0.8125,3.203125 0,2.484375 0.82812,3.515625 0.84375,1.03125 2.25,1.03125 1.0625,0 1.73438,-0.59375 0.67187,-0.609375 0.9375,-2.0625 l 3.64062,0.609375 q -0.5625,2.515625 -2.17187,3.796875 -1.60938,1.265625 -4.3125,1.265625 -3.07813,0 -4.90625,-1.9375 -1.8125,-1.9375 -1.8125,-5.359375 0,-3.46875 1.82812,-5.390625 1.82813,-1.9375 4.95313,-1.9375 2.5625,0 4.0625,1.109375 1.51562,1.09375 2.17187,3.34375 z m 5.38743,0.125 -3.35938,-0.609375 q 0.5625,-2.015625 1.95313,-2.984375 1.39062,-0.984375 4.10937,-0.984375 2.48438,0 3.6875,0.59375 1.21875,0.578125 1.70313,1.484375 0.5,0.890625 0.5,3.3125 l -0.0312,4.328125 q 0,1.84375 0.17187,2.71875 0.1875,0.875 0.67188,1.875 l -3.67188,0 q -0.14062,-0.375 -0.35937,-1.09375 -0.0781,-0.328125 -0.125,-0.4375 -0.95313,0.921875 -2.03125,1.390625 -1.07813,0.453125 -2.3125,0.453125 -2.15625,0 -3.40625,-1.171875 -1.23438,-1.171875 -1.23438,-2.96875 0,-1.1875 0.5625,-2.109375 0.5625,-0.9375 1.57813,-1.421875 1.03125,-0.5 2.95312,-0.875 2.59375,-0.484375 3.59375,-0.90625 l 0,-0.359375 q 0,-1.078125 -0.53125,-1.53125 -0.51562,-0.453125 -1.98437,-0.453125 -0.98438,0 -1.54688,0.390625 -0.54687,0.390625 -0.89062,1.359375 z m 4.95312,3.015625 q -0.70312,0.234375 -2.25,0.5625 -1.54687,0.328125 -2.01562,0.640625 -0.71875,0.515625 -0.71875,1.3125 0,0.78125 0.57812,1.34375 0.57813,0.5625 1.46875,0.5625 1,0 1.92188,-0.65625 0.67187,-0.5 0.875,-1.21875 0.14062,-0.484375 0.14062,-1.8125 l 0,-0.734375 z m 7.1062,6.71875 0,-19.328125 3.70313,0 0,19.328125 -3.70313,0 z M 494.207,62.206835 490.84763,61.59746 q 0.5625,-2.015625 1.95312,-2.984375 1.39063,-0.984375 4.10938,-0.984375 2.48437,0 3.6875,0.59375 1.21875,0.578125 1.70312,1.484375 0.5,0.890625 0.5,3.3125 l -0.0312,4.328125 q 0,1.84375 0.17188,2.71875 0.1875,0.875 0.67187,1.875 l -3.67187,0 q -0.14063,-0.375 -0.35938,-1.09375 -0.0781,-0.328125 -0.125,-0.4375 -0.95312,0.921875 -2.03125,1.390625 -1.07812,0.453125 -2.3125,0.453125 -2.15625,0 -3.40625,-1.171875 -1.23437,-1.171875 -1.23437,-2.96875 0,-1.1875 0.5625,-2.109375 0.5625,-0.9375 1.57812,-1.421875 1.03125,-0.5 2.95313,-0.875 2.59375,-0.484375 3.59375,-0.90625 l 0,-0.359375 q 0,-1.078125 -0.53125,-1.53125 -0.51563,-0.453125 -1.98438,-0.453125 -0.98437,0 -1.54687,0.390625 -0.54688,0.390625 -0.89063,1.359375 z m 4.95313,3.015625 q -0.70313,0.234375 -2.25,0.5625 -1.54688,0.328125 -2.01563,0.640625 -0.71875,0.515625 -0.71875,1.3125 0,0.78125 0.57813,1.34375 0.57812,0.5625 1.46875,0.5625 1,0 1.92187,-0.65625 0.67188,-0.5 0.875,-1.21875 0.14063,-0.484375 0.14063,-1.8125 l 0,-0.734375 z"
       id="path3577"
       inkscape:connector-curvature="0"
       style="fill:#000000;fill-rule:nonzero" />
    <path
       d="m 466.67142,103.94121 -4.25,0 -1.6875,-4.390625 -7.71875,0 -1.59375,4.390625 -4.14063,0 7.53125,-19.328125 4.125,0 7.73438,19.328125 z m -7.1875,-7.640625 -2.65625,-7.171875 -2.60938,7.171875 5.26563,0 z m 9.01593,7.640625 0,-19.328125 6.26563,0 q 3.54687,0 4.64062,0.296875 1.65625,0.421875 2.76563,1.890625 1.125,1.453125 1.125,3.765625 0,1.765625 -0.64063,2.984375 -0.64062,1.21875 -1.64062,1.90625 -1,0.6875 -2.03125,0.921875 -1.39063,0.265625 -4.04688,0.265625 l -2.54687,0 0,7.296875 -3.89063,0 z m 3.89063,-16.0625 0,5.484375 2.14062,0 q 2.3125,0 3.07813,-0.296875 0.78125,-0.3125 1.21875,-0.953125 0.45312,-0.640625 0.45312,-1.5 0,-1.0625 -0.625,-1.734375 -0.60937,-0.6875 -1.5625,-0.859375 -0.70312,-0.140625 -2.8125,-0.140625 l -1.89062,0 z m 13.76388,16.0625 0,-19.328125 3.90625,0 0,19.328125 -3.90625,0 z"
       id="path3579"
       inkscape:connector-curvature="0"
       style="fill:#000000;fill-rule:nonzero" />
    <path
       d="m 546.8819,41.43869 0,0 c 0,-10.190655 8.26117,-18.451813 18.45178,-18.451813 l 94.18298,0 c 4.89374,0 9.58704,1.944023 13.04743,5.404409 3.46038,3.460387 5.40441,8.153677 5.40441,13.047403 l 0,73.805041 c 0,10.19065 -8.26116,18.45181 -18.45184,18.45181 l -94.18298,0 c -10.19061,0 -18.45178,-8.26116 -18.45178,-18.45181 z"
       id="path3581"
       inkscape:connector-curvature="0"
       style="fill:#cff09e;fill-rule:nonzero" />
    <path
       d="m 546.8819,41.43869 0,0 c 0,-10.190655 8.26117,-18.451813 18.45178,-18.451813 l 94.18298,0 c 4.89374,0 9.58704,1.944023 13.04743,5.404409 3.46038,3.460387 5.40441,8.153677 5.40441,13.047403 l 0,73.805041 c 0,10.19065 -8.26116,18.45181 -18.45184,18.45181 l -94.18298,0 c -10.19061,0 -18.45178,-8.26116 -18.45178,-18.45181 z"
       id="path3583"
       inkscape:connector-curvature="0"
       style="stroke:#000000;stroke-width:4.48860788;stroke-linecap:butt;stroke-linejoin:round" />
    <path
       d="m 570.6376,87.94121 0,-19.328125 5.84375,0 3.51563,13.1875 3.45312,-13.1875 5.85938,0 0,19.328125 -3.625,0 0,-15.21875 -3.82813,15.21875 -3.76562,0 -3.82813,-15.21875 0,15.21875 -3.625,0 z m 30.34552,-4.453125 3.6875,0.609375 q -0.70313,2.03125 -2.25,3.09375 -1.53125,1.0625 -3.84375,1.0625 -3.64063,0 -5.40625,-2.375 -1.375,-1.921875 -1.375,-4.828125 0,-3.484375 1.8125,-5.453125 1.82812,-1.96875 4.60937,-1.96875 3.125,0 4.92188,2.0625 1.8125,2.0625 1.73437,6.3125 l -9.28125,0 q 0.0312,1.65625 0.89063,2.578125 0.85937,0.90625 2.14062,0.90625 0.875,0 1.46875,-0.46875 0.59375,-0.484375 0.89063,-1.53125 z m 0.20312,-3.75 q -0.0312,-1.609375 -0.82812,-2.4375 -0.78125,-0.84375 -1.92188,-0.84375 -1.21875,0 -2,0.890625 -0.79687,0.875 -0.78125,2.390625 l 5.53125,0 z m 12.93427,-5.796875 0,2.953125 -2.53125,0 0,5.640625 q 0,1.71875 0.0625,2 0.0781,0.28125 0.32812,0.46875 0.26563,0.1875 0.64063,0.1875 0.51562,0 1.48437,-0.359375 l 0.3125,2.875 q -1.28125,0.546875 -2.92187,0.546875 -1,0 -1.8125,-0.328125 -0.79688,-0.34375 -1.17188,-0.875 -0.375,-0.53125 -0.51562,-1.4375 -0.125,-0.65625 -0.125,-2.609375 l 0,-6.109375 -1.70313,0 0,-2.953125 1.70313,0 0,-2.78125 3.71875,-2.15625 0,4.9375 2.53125,0 z m 10.56427,9.546875 3.6875,0.609375 q -0.70313,2.03125 -2.25,3.09375 -1.53125,1.0625 -3.84375,1.0625 -3.64063,0 -5.40625,-2.375 -1.375,-1.921875 -1.375,-4.828125 0,-3.484375 1.8125,-5.453125 1.82812,-1.96875 4.60937,-1.96875 3.125,0 4.92188,2.0625 1.8125,2.0625 1.73437,6.3125 l -9.28125,0 q 0.0312,1.65625 0.89063,2.578125 0.85937,0.90625 2.14062,0.90625 0.875,0 1.46875,-0.46875 0.59375,-0.484375 0.89063,-1.53125 z m 0.20312,-3.75 q -0.0312,-1.609375 -0.82812,-2.4375 -0.78125,-0.84375 -1.92188,-0.84375 -1.21875,0 -2,0.890625 -0.79687,0.875 -0.78125,2.390625 l 5.53125,0 z m 5.65308,1 q 0,-1.84375 0.90625,-3.5625 0.92188,-1.734375 2.57813,-2.640625 1.67187,-0.90625 3.73437,-0.90625 3.17188,0 5.20313,2.0625 2.03125,2.0625 2.03125,5.203125 0,3.1875 -2.04688,5.28125 -2.04687,2.078125 -5.17187,2.078125 -1.92188,0 -3.67188,-0.859375 -1.73437,-0.875 -2.65625,-2.546875 -0.90625,-1.6875 -0.90625,-4.109375 z m 3.79688,0.203125 q 0,2.078125 0.98437,3.1875 1,1.109375 2.45313,1.109375 1.4375,0 2.42187,-1.109375 0.98438,-1.109375 0.98438,-3.21875 0,-2.046875 -0.98438,-3.15625 -0.98437,-1.109375 -2.42187,-1.109375 -1.45313,0 -2.45313,1.109375 -0.98437,1.109375 -0.98437,3.1875 z m 16.89202,7 -3.70312,0 0,-14 3.4375,0 0,1.984375 q 0.89062,-1.40625 1.59375,-1.84375 0.70312,-0.453125 1.59375,-0.453125 1.26562,0 2.4375,0.6875 l -1.14063,3.234375 q -0.9375,-0.609375 -1.73437,-0.609375 -0.78125,0 -1.32813,0.4375 -0.53125,0.421875 -0.84375,1.546875 -0.3125,1.125 -0.3125,4.6875 l 0,4.328125 z"
       id="path3585"
       inkscape:connector-curvature="0"
       style="fill:#000000;fill-rule:nonzero" />
    <path
       d="m 689.8084,41.43869 0,0 c 0,-10.190655 8.26117,-18.451813 18.45178,-18.451813 l 94.18298,0 c 4.89374,0 9.58704,1.944023 13.04743,5.404409 3.46038,3.460387 5.40441,8.153677 5.40441,13.047403 l 0,73.805041 c 0,10.19065 -8.26116,18.45181 -18.45184,18.45181 l -94.18298,0 c -10.19061,0 -18.45178,-8.26116 -18.45178,-18.45181 z"
       id="path3587"
       inkscape:connector-curvature="0"
       style="fill:#ffffff;fill-rule:nonzero" />
    <path
       d="m 689.8084,41.43869 0,0 c 0,-10.190655 8.26117,-18.451813 18.45178,-18.451813 l 94.18298,0 c 4.89374,0 9.58704,1.944023 13.04743,5.404409 3.46038,3.460387 5.40441,8.153677 5.40441,13.047403 l 0,73.805041 c 0,10.19065 -8.26116,18.45181 -18.45184,18.45181 l -94.18298,0 c -10.19061,0 -18.45178,-8.26116 -18.45178,-18.45181 z"
       id="path3589"
       inkscape:connector-curvature="0"
       style="stroke:#000000;stroke-width:4.48860788;stroke-linecap:butt;stroke-linejoin:round" />
    <path
       d="m 746.18024,87.94121 0,-3.703125 3.70313,0 0,3.703125 -3.70313,0 z m 7.40601,0 0,-3.703125 3.70312,0 0,3.703125 -3.70312,0 z m 7.40594,0 0,-3.703125 3.70313,0 0,3.703125 -3.70313,0 z"
       id="path3591"
       inkscape:connector-curvature="0"
       style="fill:#000000;fill-rule:nonzero" />
    <path
       d="m 34.490814,263.88217 0,0 c 0,-7.90608 6.409153,-14.31525 14.315247,-14.31525 l 183.747449,0 c 3.79665,0 7.43779,1.50821 10.12242,4.19284 2.68462,2.68463 4.19283,6.32578 4.19283,10.12241 l 0,57.25928 c 0,7.90609 -6.40915,14.31524 -14.31525,14.31524 l -183.74745,0 0,0 c -7.906093,0 -14.315247,-6.40915 -14.315247,-14.31524 z"
       id="path3593"
       inkscape:connector-curvature="0"
       style="fill:#f3f3f3;fill-rule:nonzero" />
    <path
       d="m 34.490814,263.88217 0,0 c 0,-7.90608 6.409153,-14.31525 14.315247,-14.31525 l 183.747449,0 c 3.79665,0 7.43779,1.50821 10.12242,4.19284 2.68462,2.68463 4.19283,6.32578 4.19283,10.12241 l 0,57.25928 c 0,7.90609 -6.40915,14.31524 -14.31525,14.31524 l -183.74745,0 0,0 c -7.906093,0 -14.315247,-6.40915 -14.315247,-14.31524 z"
       id="path3595"
       inkscape:connector-curvature="0"
       style="stroke:#000000;stroke-width:4.48860788;stroke-linecap:butt;stroke-linejoin:round" />
    <path
       d="m 54.14854,304.2318 0,-22.90625 4.625,0 0,9.01563 9.062504,0 0,-9.01563 4.625,0 0,22.90625 -4.625,0 0,-10.01562 -9.062504,0 0,10.01562 -4.625,0 z m 26.343754,-11.53125 -3.984375,-0.71875 q 0.671875,-2.40625 2.3125,-3.5625 1.640625,-1.15625 4.875,-1.15625 2.9375,0 4.375,0.70313 1.4375,0.6875 2.015625,1.76562 0.59375,1.0625 0.59375,3.92188 l -0.04687,5.125 q 0,2.1875 0.203125,3.23437 0.21875,1.03125 0.796875,2.21875 l -4.34375,0 q -0.171875,-0.4375 -0.421875,-1.29687 -0.109375,-0.39063 -0.15625,-0.51563 -1.125,1.09375 -2.40625,1.64063 -1.28125,0.54687 -2.734375,0.54687 -2.5625,0 -4.046875,-1.39062 -1.46875,-1.39063 -1.46875,-3.51563 0,-1.40625 0.671875,-2.5 0.671875,-1.10937 1.875,-1.6875 1.21875,-0.59375 3.5,-1.03125 3.078125,-0.57812 4.265625,-1.07812 l 0,-0.4375 q 0,-1.26563 -0.625,-1.79688 -0.625,-0.54687 -2.359375,-0.54687 -1.171875,0 -1.828125,0.46875 -0.65625,0.45312 -1.0625,1.60937 z m 5.875,3.5625 q -0.84375,0.28125 -2.671875,0.67188 -1.828125,0.39062 -2.390625,0.76562 -0.859375,0.60938 -0.859375,1.54688 0,0.92187 0.6875,1.59375 0.6875,0.67187 1.75,0.67187 1.1875,0 2.265625,-0.78125 0.796875,-0.59375 1.046875,-1.45312 0.171875,-0.5625 0.171875,-2.14063 l 0,-0.875 z m 23.859376,7.96875 -4.07813,0 0,-2.4375 q -1.01562,1.42188 -2.40625,2.125 -1.375,0.6875 -2.78125,0.6875 -2.859371,0 -4.906246,-2.29687 -2.03125,-2.3125 -2.03125,-6.4375 0,-4.21875 1.984375,-6.40625 1.984375,-2.20313 5.015621,-2.20313 2.78125,0 4.8125,2.3125 l 0,-8.25 4.39063,0 0,22.90625 z m -11.718751,-8.65625 q 0,2.65625 0.734375,3.84375 1.062496,1.71875 2.968746,1.71875 1.51563,0 2.57813,-1.28125 1.0625,-1.29687 1.0625,-3.85937 0,-2.85938 -1.03125,-4.10938 -1.03125,-1.26562 -2.64063,-1.26562 -1.5625,0 -2.624996,1.25 -1.046875,1.23437 -1.046875,3.70312 z m 15.031251,0.125 q 0,-2.1875 1.07812,-4.23437 1.07813,-2.04688 3.04688,-3.125 1.98437,-1.07813 4.42187,-1.07813 3.76563,0 6.17188,2.45313 2.40625,2.4375 2.40625,6.17187 0,3.76563 -2.4375,6.25 -2.42188,2.46875 -6.10938,2.46875 -2.28125,0 -4.35937,-1.03125 -2.0625,-1.03125 -3.14063,-3.01562 -1.07812,-2 -1.07812,-4.85938 z m 4.5,0.23438 q 0,2.46875 1.17187,3.78125 1.17188,1.3125 2.89063,1.3125 1.71875,0 2.875,-1.3125 1.17187,-1.3125 1.17187,-3.8125 0,-2.4375 -1.17187,-3.75 -1.15625,-1.3125 -2.875,-1.3125 -1.71875,0 -2.89063,1.3125 -1.17187,1.3125 -1.17187,3.78125 z m 15.04687,-0.23438 q 0,-2.1875 1.07813,-4.23437 1.07812,-2.04688 3.04687,-3.125 1.98438,-1.07813 4.42188,-1.07813 3.76562,0 6.17187,2.45313 2.40625,2.4375 2.40625,6.17187 0,3.76563 -2.4375,6.25 -2.42187,2.46875 -6.10937,2.46875 -2.28125,0 -4.35938,-1.03125 -2.0625,-1.03125 -3.14062,-3.01562 -1.07813,-2 -1.07813,-4.85938 z m 4.5,0.23438 q 0,2.46875 1.17188,3.78125 1.17187,1.3125 2.89062,1.3125 1.71875,0 2.875,-1.3125 1.17188,-1.3125 1.17188,-3.8125 0,-2.4375 -1.17188,-3.75 -1.15625,-1.3125 -2.875,-1.3125 -1.71875,0 -2.89062,1.3125 -1.17188,1.3125 -1.17188,3.78125 z m 15.9375,-8.29688 4.09375,0 0,2.4375 q 0.79688,-1.25 2.15625,-2.03125 1.35938,-0.78125 3.01563,-0.78125 2.89062,0 4.90625,2.26563 2.01562,2.26562 2.01562,6.3125 0,4.15625 -2.03125,6.46875 -2.03125,2.29687 -4.92187,2.29687 -1.375,0 -2.5,-0.54687 -1.10938,-0.54688 -2.34375,-1.875 l 0,8.35937 -4.39063,0 0,-22.90625 z m 4.34375,8.01563 q 0,2.79687 1.10938,4.14062 1.10937,1.32813 2.70312,1.32813 1.53125,0 2.54688,-1.21875 1.01562,-1.23438 1.01562,-4.03125 0,-2.60938 -1.04687,-3.875 -1.04688,-1.26563 -2.59375,-1.26563 -1.60938,0 -2.67188,1.25 -1.0625,1.23438 -1.0625,3.67188 z m 24.1875,8.57812 0,-22.90625 6.92188,0 4.15625,15.625 4.10937,-15.625 6.9375,0 0,22.90625 -4.29687,0 0,-18.03125 -4.54688,18.03125 -4.45312,0 -4.53125,-18.03125 0,18.03125 -4.29688,0 z m 26.73438,0 0,-22.90625 9.73437,0 q 3.67188,0 5.32813,0.625 1.67187,0.60938 2.67187,2.1875 1,1.57813 1,3.60938 0,2.57812 -1.51562,4.26562 -1.51563,1.67188 -4.53125,2.10938 1.5,0.875 2.46875,1.92187 0.98437,1.04688 2.64062,3.71875 l 2.79688,4.46875 -5.53125,0 -3.34375,-4.98437 q -1.78125,-2.67188 -2.4375,-3.35938 -0.65625,-0.70312 -1.39063,-0.95312 -0.73437,-0.26563 -2.32812,-0.26563 l -0.9375,0 0,9.5625 -4.625,0 z m 4.625,-13.21875 3.42187,0 q 3.32813,0 4.15625,-0.28125 0.82813,-0.28125 1.29688,-0.96875 0.46875,-0.6875 0.46875,-1.71875 0,-1.15625 -0.625,-1.85937 -0.60938,-0.71875 -1.73438,-0.90625 -0.5625,-0.0781 -3.375,-0.0781 l -3.60937,0 0,5.8125 z"
       id="path3597"
       inkscape:connector-curvature="0"
       style="fill:#000000;fill-rule:nonzero" />
    <path
       d="m 34.490814,58.252674 0,0 c 0,-19.47676 15.789036,-35.265797 35.265793,-35.265797 l 141.846363,0 0,0 c 9.35307,0 18.32307,3.715492 24.93669,10.329113 6.61361,6.613621 10.3291,15.583611 10.3291,24.936684 l 0,141.058956 c 0,19.47676 -15.78903,35.2658 -35.26579,35.2658 l -141.846363,0 c -19.476757,0 -35.265793,-15.78903 -35.265793,-35.2658 z"
       id="path3599"
       inkscape:connector-curvature="0"
       style="fill:#f3f3f3;fill-rule:nonzero" />
    <path
       d="m 34.490814,58.252674 0,0 c 0,-19.47676 15.789036,-35.265797 35.265793,-35.265797 l 141.846363,0 0,0 c 9.35307,0 18.32307,3.715492 24.93669,10.329113 6.61361,6.613621 10.3291,15.583611 10.3291,24.936684 l 0,141.058956 c 0,19.47676 -15.78903,35.2658 -35.26579,35.2658 l -141.846363,0 c -19.476757,0 -35.265793,-15.78903 -35.265793,-35.2658 z"
       id="path3601"
       inkscape:connector-curvature="0"
       style="stroke:#000000;stroke-width:4.48860788;stroke-linecap:butt;stroke-linejoin:round" />
    <path
       d="m 76.336044,121.50215 0,-22.90625 4.625,0 0,9.01563 9.0625,0 0,-9.01563 4.625,0 0,22.90625 -4.625,0 0,-10.01562 -9.0625,0 0,10.01562 -4.625,0 z m 23.0625,-18.84375 0,-4.0625 4.390626,0 0,4.0625 -4.390626,0 z m 0,18.84375 0,-16.59375 4.390626,0 0,16.59375 -4.390626,0 z m 13.453126,0 -6.6875,-16.59375 4.60937,0 3.125,8.46875 0.90625,2.82813 q 0.35938,-1.07813 0.45313,-1.42188 0.21875,-0.70312 0.46875,-1.40625 l 3.15625,-8.46875 4.51562,0 -6.59375,16.59375 -3.95312,0 z m 22.84375,-5.28125 4.375,0.73438 q -0.84375,2.40625 -2.67188,3.67187 -1.8125,1.25 -4.54687,1.25 -4.32813,0 -6.40625,-2.82812 -1.64063,-2.26563 -1.64063,-5.71875 0,-4.125 2.15625,-6.45313 2.15625,-2.34375 5.45313,-2.34375 3.70312,0 5.84375,2.45313 2.14062,2.4375 2.04687,7.48437 l -11,0 q 0.0469,1.95313 1.0625,3.04688 1.01563,1.07812 2.53125,1.07812 1.03125,0 1.73438,-0.5625 0.70312,-0.5625 1.0625,-1.8125 z m 0.25,-4.4375 q -0.0469,-1.90625 -0.98438,-2.89062 -0.9375,-1 -2.28125,-1 -1.4375,0 -2.375,1.04687 -0.9375,1.04688 -0.92187,2.84375 l 6.5625,0 z m 20.10937,-1.8125 -3.98437,-0.71875 q 0.67187,-2.40625 2.3125,-3.5625 1.64062,-1.15625 4.875,-1.15625 2.9375,0 4.375,0.70313 1.4375,0.6875 2.01562,1.76562 0.59375,1.0625 0.59375,3.92188 l -0.0469,5.125 q 0,2.1875 0.20312,3.23437 0.21875,1.03125 0.79688,2.21875 l -4.34375,0 q -0.17188,-0.4375 -0.42188,-1.29687 -0.10937,-0.39063 -0.15625,-0.51563 -1.125,1.09375 -2.40625,1.64063 -1.28125,0.54687 -2.73437,0.54687 -2.5625,0 -4.04688,-1.39062 -1.46875,-1.39063 -1.46875,-3.51563 0,-1.40625 0.67188,-2.5 0.67187,-1.10937 1.875,-1.6875 1.21875,-0.59375 3.5,-1.03125 3.07812,-0.57812 4.26562,-1.07812 l 0,-0.4375 q 0,-1.26563 -0.625,-1.79688 -0.625,-0.54687 -2.35937,-0.54687 -1.17188,0 -1.82813,0.46875 -0.65625,0.45312 -1.0625,1.60937 z m 5.875,3.5625 q -0.84375,0.28125 -2.67187,0.67188 -1.82813,0.39062 -2.39063,0.76562 -0.85937,0.60938 -0.85937,1.54688 0,0.92187 0.6875,1.59375 0.6875,0.67187 1.75,0.67187 1.1875,0 2.26562,-0.78125 0.79688,-0.59375 1.04688,-1.45312 0.17187,-0.5625 0.17187,-2.14063 l 0,-0.875 z m 23.73438,7.96875 -4.39063,0 0,-8.46875 q 0,-2.6875 -0.28125,-3.46875 -0.28125,-0.79687 -0.92187,-1.23437 -0.625,-0.4375 -1.51563,-0.4375 -1.14062,0 -2.04687,0.625 -0.90625,0.625 -1.25,1.65625 -0.32813,1.03125 -0.32813,3.8125 l 0,7.51562 -4.39062,0 0,-16.59375 4.07812,0 0,2.4375 q 2.17188,-2.8125 5.46875,-2.8125 1.45313,0 2.65625,0.53125 1.20313,0.51563 1.8125,1.32813 0.625,0.8125 0.85938,1.84375 0.25,1.03125 0.25,2.95312 l 0,10.3125 z m 19.67187,0 -4.07812,0 0,-2.4375 q -1.01563,1.42188 -2.40625,2.125 -1.375,0.6875 -2.78125,0.6875 -2.85938,0 -4.90625,-2.29687 -2.03125,-2.3125 -2.03125,-6.4375 0,-4.21875 1.98437,-6.40625 1.98438,-2.20313 5.01563,-2.20313 2.78125,0 4.8125,2.3125 l 0,-8.25 4.39062,0 0,22.90625 z m -11.71875,-8.65625 q 0,2.65625 0.73438,3.84375 1.0625,1.71875 2.96875,1.71875 1.51562,0 2.57812,-1.28125 1.0625,-1.29687 1.0625,-3.85937 0,-2.85938 -1.03125,-4.10938 -1.03125,-1.26562 -2.64062,-1.26562 -1.5625,0 -2.625,1.25 -1.04688,1.23437 -1.04688,3.70312 z"
       id="path3603"
       inkscape:connector-curvature="0"
       style="fill:#000000;fill-rule:nonzero" />
    <path
       d="m 93.06261,150.9709 q 0,-2.1875 1.078125,-4.23438 1.078125,-2.04687 3.046875,-3.125 1.984375,-1.07812 4.42188,-1.07812 3.76562,0 6.17187,2.45312 2.40625,2.4375 2.40625,6.17188 0,3.76562 -2.4375,6.25 -2.42187,2.46875 -6.10937,2.46875 -2.281255,0 -4.35938,-1.03125 -2.0625,-1.03125 -3.140625,-3.01563 -1.078125,-2 -1.078125,-4.85937 z m 4.5,0.23437 q 0,2.46875 1.171875,3.78125 1.171875,1.3125 2.890625,1.3125 1.71875,0 2.875,-1.3125 1.17188,-1.3125 1.17188,-3.8125 0,-2.4375 -1.17188,-3.75 -1.15625,-1.3125 -2.875,-1.3125 -1.71875,0 -2.890625,1.3125 -1.171875,1.3125 -1.171875,3.78125 z m 23.67188,-8.29687 0,3.5 -3,0 0,6.6875 q 0,2.03125 0.0781,2.375 0.0937,0.32812 0.39063,0.54687 0.3125,0.21875 0.75,0.21875 0.60937,0 1.76562,-0.42187 l 0.375,3.40625 q -1.53125,0.65625 -3.46875,0.65625 -1.1875,0 -2.14062,-0.39063 -0.95313,-0.40625 -1.40625,-1.03125 -0.4375,-0.64062 -0.60938,-1.71875 -0.14062,-0.76562 -0.14062,-3.09375 l 0,-7.23437 -2.01563,0 0,-3.5 2.01563,0 0,-3.29688 4.40625,-2.5625 0,5.85938 3,0 z m 7.42187,-6.3125 0,8.42187 q 2.125,-2.48437 5.07812,-2.48437 1.51563,0 2.73438,0.5625 1.21875,0.5625 1.82812,1.4375 0.625,0.875 0.84375,1.9375 0.23438,1.0625 0.23438,3.29687 l 0,9.73438 -4.39063,0 0,-8.76563 q 0,-2.60937 -0.25,-3.3125 -0.25,-0.70312 -0.89062,-1.10937 -0.625,-0.42188 -1.57813,-0.42188 -1.09375,0 -1.95312,0.53125 -0.85938,0.53125 -1.26563,1.60938 -0.39062,1.0625 -0.39062,3.15625 l 0,8.3125 -4.39062,0 0,-22.90625 4.39062,0 z m 24.78125,17.625 4.375,0.73437 q -0.84375,2.40625 -2.67188,3.67188 -1.8125,1.25 -4.54687,1.25 -4.32813,0 -6.40625,-2.82813 -1.64063,-2.26562 -1.64063,-5.71875 0,-4.125 2.15625,-6.45312 2.15625,-2.34375 5.45313,-2.34375 3.70312,0 5.84375,2.45312 2.14062,2.4375 2.04687,7.48438 l -11,0 q 0.0469,1.95312 1.0625,3.04687 1.01563,1.07813 2.53125,1.07813 1.03125,0 1.73438,-0.5625 0.70312,-0.5625 1.0625,-1.8125 z m 0.25,-4.4375 q -0.0469,-1.90625 -0.98438,-2.89063 -0.9375,-1 -2.28125,-1 -1.4375,0 -2.375,1.04688 -0.9375,1.04687 -0.92187,2.84375 l 6.5625,0 z m 12.14062,9.71875 -4.39062,0 0,-16.59375 4.07812,0 0,2.35937 q 1.04688,-1.67187 1.875,-2.20312 0.84375,-0.53125 1.90625,-0.53125 1.5,0 2.89063,0.82812 l -1.35938,3.82813 q -1.10937,-0.71875 -2.0625,-0.71875 -0.92187,0 -1.5625,0.51562 -0.64062,0.5 -1.01562,1.82813 -0.35938,1.32812 -0.35938,5.5625 l 0,5.125 z m 6.70313,-4.73438 4.40625,-0.67187 q 0.28125,1.28125 1.14062,1.95312 0.85938,0.65625 2.40625,0.65625 1.70313,0 2.5625,-0.625 0.57813,-0.4375 0.57813,-1.17187 0,-0.5 -0.3125,-0.82813 -0.32813,-0.3125 -1.46875,-0.57812 -5.3125,-1.17188 -6.73438,-2.14063 -1.96875,-1.34375 -1.96875,-3.73437 0,-2.15625 1.70313,-3.625 1.70312,-1.46875 5.28125,-1.46875 3.40625,0 5.0625,1.10937 1.65625,1.10938 2.28125,3.28125 l -4.14063,0.76563 q -0.26562,-0.96875 -1.01562,-1.48438 -0.73438,-0.51562 -2.10938,-0.51562 -1.73437,0 -2.48437,0.48437 -0.5,0.34375 -0.5,0.89063 0,0.46875 0.4375,0.79687 0.59375,0.4375 4.09375,1.23438 3.51562,0.79687 4.90625,1.95312 1.375,1.17188 1.375,3.26563 0,2.28125 -1.90625,3.92187 -1.90625,1.64063 -5.64063,1.64063 -3.39062,0 -5.375,-1.375 -1.96875,-1.375 -2.57812,-3.73438 z"
       id="path3605"
       inkscape:connector-curvature="0"
       style="fill:#000000;fill-rule:nonzero" />
  </g>
</svg>
